<svg width="100" height="100" viewBox="0 0 100 100" xmlns="http://www.w3.org/2000/svg"><title>testimonials-absolut</title><g fill="#5D6D81" fill-rule="evenodd"><path d="M26.552 44.958S23.554 31.146 23.49 30.8c-.065-.346.052-.474.052-.474H18.65c.169.128.052.461.052.461s-3.165 13.658-3.27 14.094c-.103.436-.337.525-.337.525h4.606c-.117-.102-.09-.423-.09-.423l.298-1.998h2.283s.234 1.627.273 1.986c.039.359-.091.435-.091.435h4.463c-.169-.064-.285-.448-.285-.448zm-6.215-4.728l.74-4.869.713 4.869h-1.453zm13.843-2.614s2.699-.294 2.608-3.715c-.13-3.741-4.787-3.55-4.787-3.55h-5.1c.118.129.156.564.156.564v13.953c0 .282-.142.564-.142.564h5.67c1.453 0 4.839-.615 4.748-4.139-.09-3.523-3.153-3.677-3.153-3.677zm-1.362-2.831c.078 1.64-1.44 1.524-1.544 1.524 0-1.499-.026-2.908-.026-2.908s1.492-.256 1.57 1.384zm-1.583 7.367v-3.1s1.726-.283 1.726 1.562-1.726 1.538-1.726 1.538zm11.715-6.688c-.804-.637-1.219-1.794.286-1.922 1.596.012 2.634 1.025 2.634 1.025v-3.985c-.117.103-.311.116-.558.013a7.805 7.805 0 0 0-1.401-.423c-1.92-.358-3.438.064-4.32.705-.883.64-1.505 1.32-1.61 3.434-.103 2.114.8 3.016 2.038 4.24 1.45 1.099 1.868 1.5 2.244 1.96.441.437.467 1.449-.986 1.59-1.505.05-3.282-1.487-3.282-1.487v4.293c.155-.103.428 0 1.025.32 1.44.794 4.125.794 5.825-.346 1.7-1.14 2.232-3.946 1.726-5.612-.507-1.666-2.233-2.708-3.62-3.805zm9.757-5.446s-5.663-.782-5.663 7.828 5.663 7.915 5.663 7.915 5.675.487 5.675-7.915-5.675-7.828-5.675-7.828zm0 12.207s-1.356.515-1.356-4.38c0-4.894 1.356-4.51 1.356-4.51s1.29-.381 1.29 4.51c0 4.893-1.29 4.38-1.29 4.38zm10.86-.342V30.864c0-.371.116-.525.116-.525h-4.528c.195.269.143.564.143.564v13.875c0 .538-.143.615-.143.615h7.486V41.73c-.13.128-.545.154-.545.154h-2.53zm9.886-10.942v10.301s.02 1.09-1.083 1.09-1.217-1.09-1.217-1.09V30.877c0-.423.143-.538.143-.538h-4.408c.117.064.169.538.169.538v10.365s.107 4.523 5.232 4.523 5.199-4.548 5.199-4.548V30.85c0-.294.13-.487.13-.487h-4.334c.143.154.169.577.169.577zm4.657 3.062c.221-.14.558-.128.558-.128h1.934v10.98c0 .423-.13.551-.13.551h4.54c-.142-.14-.142-.576-.142-.576V33.875h1.972c.324 0 .493.128.493.128v-3.651h-9.224v3.651zm11.43-3.932c-.812 0-1.5.618-1.5 1.455 0 .846.688 1.463 1.5 1.463.806 0 1.494-.617 1.494-1.463 0-.837-.688-1.455-1.493-1.455zm0 2.675c-.676 0-1.203-.517-1.203-1.22 0-.69.527-1.212 1.204-1.212.668 0 1.196.521 1.196 1.212 0 .703-.528 1.22-1.196 1.22z"/><path d="M90.22 31.167c0-.332-.199-.478-.601-.478h-.649v1.683h.258v-.73h.297l.45.73h.289l-.485-.742c.25-.03.442-.162.442-.463zm-.992.259v-.521h.352c.18 0 .371.038.371.247 0 .258-.195.274-.414.274h-.31zM76 68.896h4.463c-.168-.064-.285-.449-.285-.449S77.18 54.636 77.116 54.29c-.065-.346.052-.474.052-.474h-4.891c.168.128.051.46.051.46s-3.165 13.66-3.268 14.094c-.104.436-.337.526-.337.526h4.606c-.117-.103-.091-.423-.091-.423l.298-1.999h2.284s.233 1.627.272 1.986c.04.359-.09.436-.09.436zm-2.037-5.176l.74-4.87.714 4.87h-1.454zM39.589 53.508s-5.663-.782-5.663 7.827c0 8.61 5.663 7.916 5.663 7.916s5.675.486 5.675-7.916c0-8.401-5.675-7.827-5.675-7.827zm0 12.207s-1.356.515-1.356-4.38c0-4.894 1.356-4.51 1.356-4.51s1.29-.382 1.29 4.51c0 4.892-1.29 4.38-1.29 4.38zM50.58 53.824h-4.541a.928.928 0 0 1 .155.448v14.132c0 .27-.117.539-.117.539h4.658c4.178 0 5.345-3.652 5.345-3.652s1.35-3.318.117-7.495c-1.232-4.177-5.618-3.972-5.618-3.972zm-.338 11.992v-8.968s2.089-.295 2.089 4.458c0 4.754-2.089 4.51-2.089 4.51zm18.138 2.729l-2.958-7.725s2.88-6.189 3.023-6.47c.143-.283.363-.513.363-.513h-4.813c.078.077.052.397.052.397l-2.18 5.791v-5.727c0-.333.143-.448.143-.448h-4.541c.116.064.168.435.168.435V68.38c0 .397-.155.564-.155.564h4.567c-.143-.141-.156-.603-.156-.603v-6.278s1.933 6.022 2.037 6.33c.104.307-.078.538-.078.538h4.774c-.122-.08-.246-.385-.246-.385zm-37.25-.122c.065-.346 3.062-14.157 3.062-14.157s.117-.385.285-.449h-4.463s.13.077.091.436c-.039.359-.272 1.986-.272 1.986l-1.116 7.623-1.168-7.623-.298-1.999s-.026-.32.09-.423h-4.605s.233.09.337.526c.104.435 3.27 14.093 3.27 14.093s.116.333-.052.461h4.89s-.116-.128-.051-.474z"/><path d="M46.194 49.785a172.892 172.892 0 0 1-2.776 2.063l2.361-4.267h-.96c-1.012 1.858-1.453 2.511-1.751 2.908-.299.398-.494.795-1.09 1.115-.597.32-.558-.077-.558-.18 0-.102.22-.5.636-1.076.415-.576.648-.832.934-1.588.285-.756-.013-1.205-.247-1.256-.233-.051-.713 0-1.167.436-.454.435-2.414 2.92-2.712 3.203-.298.282-.402.294-.752.435-.35.141-.35-.064-.338-.23.013-.167.415-.923.87-1.512.454-.59 1.011-1.063 1.258-1.691.247-.628-.104-.884-.623-.782-.519.103-.661-.025-.661-.025s.363-.539.544-.782c.182-.243.312-.666.104-.756-.207-.09-.493.115-.778.487-.286.372-.325.807-.338 1.14-.635 1.013-1.842 2.486-2.49 3.255-.65.768-1.155.96-1.415.884-.26-.077-.168-.795.052-1.294.22-.5 1.752-2.883 1.752-2.883h.908l.13-.308h-.883l1.259-2.203h-.882l-1.389 2.267h-.999l-.103.257s.44.012.934 0c-1.674 3.036-2.465 3.625-2.816 3.933-.35.307-.583.397-.791.307-.208-.09-.104-.41.065-.666.169-.256 1.155-1.653 1.323-2.524.169-.871-.13-1-.7-.986-.571.012-1.401.896-1.648 1.089.13-1.538-.87-1.269-1.57-.551-.7.717-2.037 2.562-2.374 2.947-.337.384-.766.627-.882.59-.117-.04-.091-.168.065-.654.155-.487 1.725-3.268 1.725-3.268h-.856c-1.36 2.31-2.31 3.306-2.647 3.626-.337.32-.636.449-.817.385-.182-.064.013-.359.155-.577.143-.218 1-1.512 1.272-1.922.272-.41.597-1.28.156-1.486-.442-.205-.974.128-1.506.461-.531.334-1.102 1.077-1.375 1.102.661-1.258.247-1.794-.039-1.87-.285-.077-.778.038-1.544.589-.765.55-2.763 2.588-3.282 2.998-.519.41-3.088 1.948-4.385.743-1.298-1.204.104-3.972.48-4.664 4.164-.653 6.331-3.139 6.552-4.023.22-.884-.493-1.191-.934-1.153-3.919.551-6.254 3.908-6.864 4.83-1.012-.012-3.762-.717-3.075-3.37.688-2.651 3.763-2.664 3.763-2.664s-.013-.039 0-.116c-2.634-.46-4.787 1.653-4.437 3.742.35 2.088 2.296 2.447 3.568 2.767-1.272 3.524-.26 5.266 1.842 5.394 2.102.128 3.88-1.294 4.619-1.78-.078.217-.156 1.511.765 1.511s2.297-2.037 2.556-2.409c.26-.012.312-.115.571-.269.26-.154 1.336-1.089 1.544-1.23.208-.14.532-.333.714-.269.181.064.13.23-.403.884-.532.654-1.038 1.358-1.258 1.845-.22.487-.299 1.179.39 1.358.687.18 1.893-1.243 1.893-1.243s-.13 1.128.416 1.205c.544.076 1.012-.218 1.998-1.5.985-1.28 1.738-2.177 2.062-2.498.325-.32.753-.166.416.449-.338.615-1.947 3.472-1.947 3.472h.987c1.297-2.204 2.296-3.588 2.97-3.92.675-.334.429.076.195.499-.843 1.307-1.025 1.768-1.142 2.127-.116.359-.26 1.268.545 1.37.805.103 1.414-.768 2.011-1.345.312 1.794 1.324 1.269 1.933.833.61-.435 2.466-3.023 3.14-3.908.947-.025.714.32.506.654-.207.333-1.064 1.307-1.297 1.614-.234.308-.921 1.41-.13 1.999.791.59 1.92-.91 2.673-1.807.752-.896 1.336-1.909 1.894-2.088.558-.18.493.09.363.397-.13.308-1.09 1.538-1.492 2.127-.402.59-.428 1.37.091 1.576.519.205 1.466-.308 1.466-.308s-.026.09-.493.795c-4.307 2.37-4.32 3.933-4.32 3.933s-.234 1.333 1.271.782c2.426-1.14 3.685-3.972 4.178-4.882 1.388-1.025 3.179-2.473 3.179-2.473s0-.037-.118-.127zm-28.31-7.495c.338-.116 1.065-.308 1.298.038.234.346-.026.897-.194 1.166-.17.27-2.517 2.806-5.748 3.062 0 0 1.648-2.96 4.645-4.266zm3.439 6.97c-.246-.116-.48-.282-.623-.141-.142.14-.052.487.26.64-.35.666-1.259 2.076-2.037 2.05 0 0-.428-.064-.22-.512.207-.449 1.219-2.32 2.464-3.562.156-.128.532-.346.636.192.104.538-.363 1.166-.48 1.333zm17.048 7.854c-1.012-.077.065-1.55.065-1.55s1.31-1.551 3.321-2.486c0 0-2.09 4.134-3.386 4.036zm19.694-12.838c-1.7.83-2.66 2.447-3.736 4.074-.376.243-1.077.615-1.414.807-.338.192-.402.077-.467.039.687-1.243.726-1.807.298-2.012-.428-.205-1.077.154-1.816.59-.74.435-2.906 2.946-3.192 3.215a33.36 33.36 0 0 1-1.038.897l.104.154c.714-.513 1.83-1.5 1.83-1.5s-.156 1.385.674 1.59c1.142.269 2.478-1.82 2.945-2.525.233.103.804-.192 1.687-.679-.493.884-1.363 2.73-2.037 4.152-.675 1.422-.973 2.229-1 3.203-.025.973 1.194 1.601 2.453-.372 1.258-1.973 1.466-4.228 1.544-4.702 1.492-.423 1.88-1.435 1.88-1.435s-.077 0-.207.013c-.545.679-1.349.974-1.608 1.012-.013-.295.01-.478-.312-.846l-.158-.18s.16-.447.392-.883c.402-.756.402-.461 1.972-1.627 1.57-1.166 1.907-2.601 1.907-2.601s.325-.884-.7-.384zm-5.903 4.74c-.259-.154-.454-.269-.635-.064-.182.205.116.474.363.602-.337.551-1.518 2.537-2.387 2.166 0 0-.286-.065-.13-.487.156-.423 1.142-2.883 2.686-3.729.22-.115 1.22-.448.103 1.512zm.61 7.162c-1.025 1.153-1.129.513-1.116.308.013-.205.065-.795.623-2.114a65.164 65.164 0 0 1 1.466-3.203l.766.102s-.26 2.896-1.739 4.907zm1.83-5.317c-.312.013-.571-.051-.65-.09l.312-.602s.39.244.337.692zm3.8-6.073c-.168.423-1.128 2.217-2.827 2.896 0 0 .92-2.025 2.465-3.024.194-.128.532-.295.363.128zm7.863 1.102c.013-.308.934-1.204 1.168-1.473.233-.27.661-1.077.104-1.205-.986-.102-1.531 2.255-1.531 2.255l-2.063 2.153s-.818-1.192-2.543-.987c-2.38.283-3.283 1.82-3.477 3.395-.195 1.576 1.22 2.73 1.22 2.73l-1.52 1.742.338.025 1.427-1.614s1.686 1.102 3.97.039c2.569-1.205 2.815-3.64 2.893-4.6.078-.961 0-2.153.013-2.46zm1.09-2.294c.454.116-.636 1.269-.921 1.487 0 0 .467-1.602.921-1.487zm-7.992 8.918s-1.946-1.332-.662-3.805c1.285-2.473 4.736-1.91 5.021-.846-1.284 1.268-4.152 4.446-4.36 4.65zm5.45-2.357c-.715 1.396-2.129 3.907-5.204 2.523 0 0 3.05-3.523 4.269-4.586.078.243.246.628-.195 1.55-.052.167.065.397.247.128.181-.269.506-.858.194-1.896 1.233-1.332 1.467-1.563 1.739-1.858-.13 1.204-.306 2.68-1.05 4.139zm24.157 1.55c-.363.14-.415-.026-.39-.167.026-.14 1.103-1.704 1.285-1.986.182-.282.74-1.294.506-1.845-.39-.871-2.089.654-2.543 1.05.428-1.934-.882-1.242-1.479-.563-.597.68-2.53 2.716-2.53 2.716s-.947 1.05-1.362.884c-.714-.269.026-1.563.233-1.96 1.61-.397 2.647-1.268 2.582-1.96-.065-.692-.999-.397-1.35-.218-2.075 1.192-2.386 2.537-2.568 3.267-.182.27-.7.807-1.142.795-.441-.013-.324-.616-.169-.923.156-.308 3.763-6.932 3.763-6.932h-.87s-1.647 2.934-2.192 3.831c-.013-.115-.182-.358-.467-.358-1.232.064-2.024 1.012-2.776 1.922-.753.91-1.103 1.28-1.35 1.537-.246.256-1.31 1.32-1.816.935-.506-.384.376-1.857.376-1.857s.87-.167 1.79-.782c1.077-.73.935-1.717.234-1.666-1.609.282-2.231 1.358-2.802 2.102a2.857 2.857 0 0 1-.908-.5c.077-.154 1.05-2.114.337-1.973-.714.14-.83 1.435-.856 2.152-.865 1.893-1.687 2.41-2.076 2.614-.39.205-.558-.051-.532-.23.22-1.038 1.959-3.972 1.959-3.972h-.908c-1.622 3.241-2.945 4.15-3.127 4.24-.121.06-.597.141-.363-.397.233-.538 1.336-2.216 1.557-2.78.038-.09.506-1.371-.65-1.115-1.154.257-1.932 1.743-1.932 1.743l.194.025c.753-.999.986-1.101 1.389-1.345.402-.243.506-.09.506.167 0 .256-.83 1.32-1.285 2.011-.454.692-.558 1.884.182 1.96.74.077 1.284-.666 1.842-1.127.052.628.454 1.499 1.414.974.96-.526 1.882-2.217 2.193-2.716.233.14.35.269.895.538-.674 1.166-.402 2.216.532 2.293.934.077 1.985-1.025 2.465-1.448-.013.103.026 1.486.804 1.486.779 0 1.194-.73 1.7-1.242.156 1.998 1.765.96 2.14.5.948 1.96 2.998-.68 3.44-1.128.44-.449 1.543-1.704 1.79-1.935.246-.23.467-.461.726-.384.26.077-.09.653-.519 1.307C86.414 49.9 85.091 52 85.091 52h1.012c.233-.359 1.544-2.28 2.27-3.177 1.142-1.14 1.375-1 1.48-.936.103.064.051.372-.416.923-.467.55-1.18 1.563-1.35 1.883-.168.32-.337 1.435.429 1.448.765.013 1.557-1.281 1.557-1.281s-.078-.038-.182-.064c-.065.115-.558.769-.921.91zm-4.424-3.767c.22-.103.532-.23.389.154-.143.384-.766 1.166-2.063 1.383 0 0 .48-.922 1.674-1.537zm-8.758.512c.662-.474 1.025-.666 1.194-.55.168.115-.467 1.306-2.102 1.588 0 0 .246-.564.908-1.038zm3.815 1.358c-.558.808-1.518 2.089-2.024 1.96 0 0-.325-.14-.156-.627s1.116-2.306 2.348-3.267c.234-.154.649-.372.584.205-.065.576-.195.922-.752 1.73z"/></g></svg>