<svg width="100" height="100" viewBox="0 0 100 100" xmlns="http://www.w3.org/2000/svg" xmlns:xlink="http://www.w3.org/1999/xlink"><title>testimonials-unicef</title><defs><path id="a" d="M1.89 4.886V.246H.12v4.64h1.77z"/></defs><g fill="none" fill-rule="evenodd"><g fill="#5D6D81"><path d="M82.627 39.278c-4.74 0-8.592 3.866-8.592 8.62 0 4.752 3.852 8.62 8.592 8.62 4.739 0 8.596-3.868 8.596-8.62 0-4.754-3.857-8.62-8.596-8.62zm6.708 3.81c-.442.295-.908.565-1.388.802a8.796 8.796 0 0 0-1.026-1.61c.355-.215.69-.456 1.002-.719a8.337 8.337 0 0 1 1.412 1.527zm-3.619-2.86a8.132 8.132 0 0 1 1.926 1.109 7.918 7.918 0 0 1-.948.67 8.966 8.966 0 0 0-1.413-1.314 3.95 3.95 0 0 0 .435-.465zm.667 1.957c-.462.25-.949.453-1.448.606-.209-.48-.45-.953-.716-1.405.275-.123.54-.277.783-.46.504.367.969.792 1.381 1.259zm-1.017-2.088a3.978 3.978 0 0 1-.378.388 8.98 8.98 0 0 0-1.443-.8 8.116 8.116 0 0 1 1.821.412zm-.671.615a3.52 3.52 0 0 1-.662.371 12.401 12.401 0 0 0-.829-1.158 8.662 8.662 0 0 1 1.49.787zm-1.89-.728c.315.384.613.79.888 1.221a3.64 3.64 0 0 1-.888.156v-1.377zm0 1.733a3.936 3.936 0 0 0 1.083-.202c.26.44.496.899.703 1.372a7.879 7.879 0 0 1-1.786.248v-1.418zM82.448 40v1.36a3.584 3.584 0 0 1-.878-.155c.266-.415.56-.817.878-1.205zm-1.215 1.083a3.51 3.51 0 0 1-.66-.37 8.448 8.448 0 0 1 1.484-.785c-.295.369-.571.754-.824 1.155zm.495-1.4a9.21 9.21 0 0 0-1.45.8 3.694 3.694 0 0 1-.38-.39 8.141 8.141 0 0 1 1.83-.41zm5.89 14.795c-1.143-.629-1.166-1.502-1.105-1.822.06-.326.284-.184.426-.184.751 0 1.541-.224 2.515-1.22 1.099-1.125 1.442-3.624-.243-5.25-1.82-1.757-3.756-1.45-5 .128-.257.323-.88.561-1.421.541-.798-.03-.296.602-.296.733 0 .134-.12.225-.192.205-.271-.079-.162.326-.162.448 0 .12-.11.183-.17.183-.34 0-.248.304-.236.387.009.081-.02.221-.133.284-.106.06-.232.326-.232.528 0 .367.335.622.892 1.04.557.416.628.813.64 1.1.01.283.035.741.162 1.046.152.366.132 1.038-.64 1.068-.94.039-2.617.794-2.758.845-.533.19-1.233.258-1.784.119a8.342 8.342 0 0 1-.844-.682c-.109-.38.082-.79.275-1.065.314.316.78.295 1.044.306.263.01 1.552-.194 1.735-.255a.472.472 0 0 1 .377 0c.49.179 1.165.233 1.439-.713.273-.946-.376-.681-.458-.64-.08.04-.191.03-.15-.051.118-.24-.062-.214-.163-.224-.261-.027-.61.254-.72.356-.114.103-.222.092-.263.071-.352-.174-1.392.078-1.715-.489.03-.152-.265-2.451-.417-2.85a.386.386 0 0 1 .041-.375c.265-.398.992.031 1.39.021.473-.012.55-.21.679-.371.125-.157.218-.07.284-.112.086-.057.005-.169.036-.229.03-.062.066-.032.146-.102.083-.071-.01-.224.032-.285.116-.177.435-.035.243-.499-.106-.254.04-.53.183-.713.23-.296 1.116-1.548-.446-2.849-1.494-1.24-3.004-1.14-3.978-.08-.973 1.058-.487 2.604-.384 3.01.1.408-.191.778-.53.937-.265.126-.873.534-1.331.934a8.22 8.22 0 0 1 5.16-7.484c.132.166.28.322.436.467-.34.251-1.09.924-1.09.924s.103.015.197.038c.066.016.206.06.206.06s.659-.564.969-.788c.242.183.504.337.784.46-.15.255-.526.964-.526.964s.09.05.166.103c.076.052.126.098.126.098s.41-.775.565-1.035c.344.117.705.183 1.07.202v1.416a17.82 17.82 0 0 1-.934-.048l-.133-.013.074.111c.057.082.1.162.137.237l.016.032.034.002c.154.013.627.03.805.033v2.585h.357v-.592c.524-.025.961-.062 1.487-.107l.021-.001.464-.413-.252.023c-.557.073-1.044.106-1.49.13l-.23.014v-1.639a8.263 8.263 0 0 0 1.928-.272c.173.428.498 1.462.498 1.462l.336-.106s-.323-1.027-.496-1.454a8.248 8.248 0 0 0 1.545-.658 8.71 8.71 0 0 1 1.016 1.585c-.253.118-.717.283-.717.283.371.039.654.128.654.128l.214-.094.097.225.462.206-.052-.13-.191-.452c.49-.242.972-.52 1.434-.832a8.242 8.242 0 0 1 1.34 4.52 8.27 8.27 0 0 1-3.255 6.58zM73.256 41.569l-.135.118c-.503.45-1.655 1.63-1.477 2.927l.017.09.056.257.161-.148c.707-.647 1.233-1.743 1.452-3.009l.06-.356-.134.12m-2.341 2.24l-.056.156a6.01 6.01 0 0 0-.303 1.278c-.109.854-.086 2.063.657 2.969l.083.107.084.108.11-.55c.123-.97-.037-3.005-.395-3.916l-.12-.308-.06.156m-.853 3.502l-.009.158c-.064.873-.019 3.022 1.718 4.163l.204.134-.009-.246c-.03-.815-.978-3.25-1.69-4.122l-.203-.246-.01.158m.297 3.848l.032.146c.253 1.236 1.422 3.236 3.225 3.817l.245.081-.088-.245c-.337-.923-2.074-3.077-3.192-3.786l-.251-.16.03.147m3.624-7.727l-.144.086c-1.341.823-1.97 1.818-1.923 3.047l.011.28.198-.163c.726-.602 1.634-2.145 1.902-3.018l.097-.318-.14.086m-.792 2.69l-.101.096c-.344.33-1.457 1.518-1.36 2.987.014.224.066.466.154.719l.078.234.144-.2c.532-.752 1.235-2.731 1.199-3.653l-.01-.279-.104.096m.057 2.55l-.074.111c-.561.836-.847 1.694-.83 2.483.017.585.2 1.145.553 1.664l.118.174.098-.185c.242-.456.435-1.938.406-3.111-.008-.414-.051-.756-.12-.99l-.073-.259-.078.112m.652 2.727l-.035.116a4.853 4.853 0 0 0-.234 1.576c.032 1.14.534 2.03 1.496 2.648l.163.103.036-.219.013-.176c-.027-.925-.715-3.259-1.254-3.97l-.146-.197-.04.119m-1.892 3.613l.07.117c.723 1.215 1.951 2.784 4.244 2.382l.194-.033-.11-.163c-.428-.64-3.214-2.216-4.199-2.376l-.27-.045.072.118zm3.396 3.086l-.36.099.345.142c1.46.6 3.289.776 4.35.417.397-.135.64-.353.936-.644 1.866.194 3.617 1.752 4.637 3.024l.053.063.08-.027a1.18 1.18 0 0 0 .363-.254l.075-.08-.066-.084c-1.063-1.395-2.727-2.258-2.803-2.293-1.497-.735-4.142-1.305-7.61-.363"/><path d="M75.482 54.203l.021.125c.219 1.377.777 3.187 3.1 2.987l.148-.013-.036-.145c-.159-.627-2.286-2.448-3.028-2.962l-.223-.116.018.124m16.419-12.755l.06.356c.216 1.266.745 2.362 1.45 3.01l.16.147.06-.257.016-.09c.177-1.297-.976-2.478-1.478-2.927l-.134-.118-.134-.121m2.416 2.204l-.121.309c-.357.91-.52 2.945-.395 3.916l.11.55.085-.109.082-.107c.74-.906.765-2.114.656-2.97a6.053 6.053 0 0 0-.301-1.277l-.06-.156-.056-.156"/></g><g transform="translate(93.065 46.826)"><mask id="b" fill="#fff"><use xlink:href="#a"/></mask><path d="M1.857.247l-.186.247C1.024 1.37.156 3.82.131 4.639l-.01.247.188-.135C1.89 3.604 1.933 1.444 1.876.566l-.009-.16-.01-.16" fill="#5D6D81" mask="url(#b)"/></g><path d="M94.663 50.645l-.247.155c-1.097.688-2.805 2.776-3.136 3.671l-.09.238.245-.078c1.77-.564 2.921-2.503 3.168-3.701l.03-.142.03-.143zm-3.662-7.475l.09.312c.246.854 1.109 2.364 1.81 2.962l.19.161.016-.271c.071-1.19-.527-2.168-1.829-2.99l-.138-.087-.139-.087m.749 2.64l-.013.271c-.034.894.657 2.814 1.18 3.542l.141.194.078-.227c.085-.246.136-.48.15-.697.093-1.424-1-2.577-1.338-2.896l-.097-.093-.101-.093m-.032 2.456l-.073.252c-.066.225-.108.558-.117.959-.027 1.137.162 2.574.4 3.017l.095.179.116-.17a2.95 2.95 0 0 0 .542-1.612c.02-.765-.263-1.597-.814-2.408l-.074-.108-.075-.11m-.602 2.638l-.147.191c-.526.69-1.202 2.953-1.23 3.85l.015.17.035.212.158-.099c.945-.6 1.44-1.463 1.472-2.568a4.7 4.7 0 0 0-.232-1.528l-.035-.113-.036-.115m1.964 3.505l-.263.043c-.966.156-3.705 1.684-4.124 2.304l-.107.158.189.032c2.253.39 3.458-1.131 4.17-2.31l.068-.113.067-.114zm-10.877 3.458c-.073.034-1.708.871-2.753 2.223l-.065.083.074.077c.07.076.246.209.356.246l.077.026.055-.062c1-1.232 2.718-2.743 4.552-2.931.291.281.527.493.92.625 1.043.347 2.839.176 4.273-.405l.339-.138-.354-.096c-3.406-.913-6.004-.36-7.474.352m7.417-4.246l-.217.112c-.73.499-2.82 2.265-2.976 2.872l-.035.141.146.013c2.28.193 2.83-1.562 3.044-2.896l.02-.122.018-.12M31.988 42.664h2.851v-2.572h-2.851v2.572zm.23 15.462h2.394V45.588h-2.395v12.538zM14.124 45.598h2.395v12.54h-2.346v-1.85h-.05c-.96 1.574-2.574 2.223-4.339 2.223-2.65 0-4.163-1.998-4.163-4.52v-8.393h2.398v7.419c0 2.173.505 3.771 2.8 3.771.982 0 2.32-.5 2.825-1.798.452-1.174.48-2.649.48-2.947v-6.445m7.181 1.849h.05c.807-1.574 2.573-2.222 3.835-2.222.881 0 4.793.225 4.793 4.245v8.667h-2.396v-7.892c0-2.073-.883-3.197-2.901-3.197 0 0-1.312-.075-2.32.923-.353.35-1.01.9-1.01 3.347v6.82H18.96v-12.54h2.345v1.849M44.65 49.62c-.129-1.565-.878-2.653-2.585-2.653-2.277 0-3.157 1.956-3.157 4.888 0 2.927.88 4.887 3.157 4.887 1.58 0 2.556-1.014 2.68-2.803h2.384c-.203 2.803-2.304 4.515-5.088 4.515-4.034 0-5.639-2.827-5.639-6.5 0-3.653 1.854-6.703 5.842-6.703 2.656 0 4.66 1.664 4.782 4.369h-2.377m6.06 2.68c-.176 2.184.726 4.442 3.155 4.442 1.854 0 2.785-.716 3.055-2.532h2.513c-.379 2.832-2.587 4.244-5.59 4.244-4.037 0-5.644-2.827-5.644-6.5 0-3.653 1.86-6.703 5.843-6.703 3.76.08 5.539 2.433 5.539 5.884V52.3h-8.871zm6.365-1.636c.05-2.084-.903-3.697-3.21-3.697-1.981 0-3.155 1.657-3.155 3.697h6.365zm5.2 7.418V47.264h-2.163V45.62h2.163v-2.675c.08-2.73 2.158-3.45 3.939-3.45.575 0 1.128.148 1.705.246v1.961c-.403-.022-.802-.076-1.205-.076-1.351 0-2.13.351-2.057 1.713v2.281h2.91v1.644h-2.91v10.818h-2.382" fill="#5D6D81"/></g></svg>