<svg width="1920" height="1336" viewBox="0 0 1920 1336" fill="none" xmlns="http://www.w3.org/2000/svg">
<mask id="mask0" mask-type="alpha" maskUnits="userSpaceOnUse" x="0" y="0" width="1920" height="1336">
<rect width="1920" height="1336" fill="#C4C4C4"/>
</mask>
<g mask="url(#mask0)">
<rect width="1920" height="1336" fill="url(#paint0_linear)"/>
<g opacity="0.1">
<path opacity="0.1" d="M1380.4 1324.89C1397.97 1324.89 1412.21 1306.24 1412.21 1283.25C1412.21 1260.26 1397.97 1241.61 1380.4 1241.61C1362.84 1241.61 1348.6 1260.26 1348.6 1283.25C1348.6 1306.24 1362.84 1324.89 1380.4 1324.89Z" fill="#4E4B66"/>
<path opacity="0.1" d="M1405.52 1105.06C1409.97 1097.32 1412.26 1088.54 1412.17 1079.61C1412.17 1056.63 1397.92 1037.96 1380.35 1037.96C1362.77 1037.96 1348.52 1056.61 1348.52 1079.61C1348.46 1088.54 1350.77 1097.32 1355.23 1105.06C1350.87 1112.83 1348.58 1121.59 1348.58 1130.51C1348.58 1139.42 1350.87 1148.18 1355.23 1155.96C1350.87 1163.73 1348.58 1172.49 1348.58 1181.4C1348.58 1190.31 1350.87 1199.07 1355.23 1206.84C1350.79 1214.58 1348.5 1223.37 1348.58 1232.3C1348.58 1255.28 1362.83 1273.93 1380.4 1273.93C1397.97 1273.93 1412.22 1255.3 1412.22 1232.3C1412.29 1223.38 1409.98 1214.61 1405.52 1206.89C1409.88 1199.12 1412.17 1190.36 1412.17 1181.45C1412.17 1172.54 1409.88 1163.78 1405.52 1156.01C1409.89 1148.23 1412.18 1139.45 1412.18 1130.53C1412.18 1121.61 1409.89 1112.84 1405.52 1105.06Z" fill="#4E4B66"/>
<path opacity="0.1" d="M1380.4 1070.41C1397.97 1070.41 1412.21 1051.76 1412.21 1028.77C1412.21 1005.78 1397.97 987.135 1380.4 987.135C1362.84 987.135 1348.6 1005.78 1348.6 1028.77C1348.6 1051.76 1362.84 1070.41 1380.4 1070.41Z" fill="#4E4B66"/>
<path opacity="0.1" d="M1380.4 1019.52C1397.97 1019.52 1412.21 1000.88 1412.21 977.889C1412.21 954.895 1397.97 936.254 1380.4 936.254C1362.84 936.254 1348.6 954.895 1348.6 977.889C1348.6 1000.88 1362.84 1019.52 1380.4 1019.52Z" fill="#4E4B66"/>
<path opacity="0.1" d="M1499.47 629.601C1503.83 624.068 1507.78 618.237 1511.32 612.151L1427.73 598.432L1518.13 599.104C1526.8 580.236 1531.53 559.797 1532.03 539.037C1532.53 518.278 1528.79 497.635 1521.04 478.37L1399.76 541.291L1511.6 459.064C1501.12 440.955 1487.03 425.198 1470.19 412.774C1453.36 400.35 1434.15 391.527 1413.76 386.852C1393.36 382.178 1372.23 381.753 1351.66 385.604C1331.1 389.455 1311.55 397.5 1294.23 409.237C1276.91 420.974 1262.19 436.152 1250.99 453.825C1239.79 471.498 1232.36 491.288 1229.14 511.961C1225.93 532.634 1227 553.748 1232.3 573.988C1237.6 594.227 1247.01 613.158 1259.95 629.601C1253.18 638.21 1247.35 647.522 1242.57 657.375L1351.07 713.738L1235.39 674.843C1227.27 698.853 1225.26 724.511 1229.55 749.494C1233.83 774.477 1244.28 797.997 1259.95 817.923C1242.28 840.398 1231.28 867.393 1228.22 895.821C1225.17 924.25 1230.17 952.965 1242.66 978.683C1255.16 1004.4 1274.63 1026.09 1298.87 1041.26C1323.1 1056.43 1351.12 1064.47 1379.71 1064.47C1408.31 1064.47 1436.32 1056.43 1460.56 1041.26C1484.79 1026.09 1504.27 1004.4 1516.76 978.683C1529.26 952.965 1534.26 924.25 1531.2 895.821C1528.14 867.393 1517.15 840.398 1499.47 817.923C1520.59 791.067 1532.08 757.893 1532.08 723.727C1532.08 689.561 1520.59 656.386 1499.47 629.53V629.601Z" fill="#00BA88"/>
<path opacity="0.1" d="M1227.35 723.798C1227.3 757.973 1238.78 791.164 1259.95 817.995C1242.28 840.469 1231.28 867.464 1228.22 895.892C1225.17 924.321 1230.17 953.036 1242.66 978.755C1255.16 1004.47 1274.63 1026.16 1298.87 1041.33C1323.1 1056.5 1351.12 1064.55 1379.71 1064.55C1408.3 1064.55 1436.32 1056.5 1460.56 1041.33C1484.79 1026.16 1504.27 1004.47 1516.76 978.755C1529.25 953.036 1534.26 924.321 1531.2 895.892C1528.14 867.464 1517.15 840.469 1499.47 817.995C1519.89 792.129 1227.35 706.702 1227.35 723.798Z" fill="#0088A6"/>
</g>
<g opacity="0.1">
<path opacity="0.1" d="M290.315 1324.89C307.881 1324.89 322.121 1306.24 322.121 1283.25C322.121 1260.26 307.881 1241.61 290.315 1241.61C272.75 1241.61 258.51 1260.26 258.51 1283.25C258.51 1306.24 272.75 1324.89 290.315 1324.89Z" fill="#4E4B66"/>
<path opacity="0.1" d="M315.491 1105.06C319.927 1097.32 322.221 1088.54 322.138 1079.61C322.138 1056.63 307.889 1037.96 290.315 1037.96C272.742 1037.96 258.492 1056.61 258.492 1079.61C258.417 1088.54 260.73 1097.32 265.193 1105.06C260.835 1112.83 258.546 1121.59 258.546 1130.51C258.546 1139.42 260.835 1148.18 265.193 1155.96C260.835 1163.73 258.546 1172.49 258.546 1181.4C258.546 1190.31 260.835 1199.07 265.193 1206.84C260.751 1214.58 258.456 1223.37 258.545 1232.3C258.545 1255.28 272.795 1273.93 290.368 1273.93C307.942 1273.93 322.191 1255.3 322.191 1232.3C322.272 1223.37 319.978 1214.58 315.544 1206.84C319.902 1199.07 322.19 1190.31 322.19 1181.4C322.19 1172.49 319.902 1163.73 315.544 1155.96C319.902 1148.18 322.19 1139.42 322.19 1130.51C322.19 1121.59 319.902 1112.83 315.544 1105.06H315.491Z" fill="#4E4B66"/>
<path opacity="0.1" d="M290.315 1070.41C307.881 1070.41 322.121 1051.76 322.121 1028.77C322.121 1005.78 307.881 987.135 290.315 987.135C272.75 987.135 258.51 1005.78 258.51 1028.77C258.51 1051.76 272.75 1070.41 290.315 1070.41Z" fill="#4E4B66"/>
<path opacity="0.1" d="M290.315 1019.52C307.881 1019.52 322.121 1000.88 322.121 977.889C322.121 954.895 307.881 936.254 290.315 936.254C272.75 936.254 258.51 954.895 258.51 977.889C258.51 1000.88 272.75 1019.52 290.315 1019.52Z" fill="#4E4B66"/>
<path opacity="0.1" d="M171.243 629.601C166.892 624.068 162.934 618.237 159.398 612.151L242.987 598.432L152.591 599.104C143.919 580.236 139.188 559.797 138.686 539.037C138.185 518.278 141.924 497.635 149.674 478.37L270.956 541.291L159.115 459.064C169.593 440.955 183.688 425.198 200.522 412.774C217.356 400.35 236.568 391.527 256.961 386.852C277.354 382.178 298.491 381.753 319.056 385.604C339.62 389.455 359.171 397.5 376.491 409.237C393.811 420.974 408.528 436.152 419.725 453.825C430.923 471.498 438.361 491.288 441.577 511.961C444.792 532.634 443.716 553.748 438.415 573.988C433.114 594.227 423.702 613.158 410.766 629.601C417.537 638.21 423.363 647.522 428.145 657.375L319.645 713.738L435.323 674.843C443.449 698.853 445.459 724.511 441.171 749.494C436.883 774.477 426.433 797.997 410.766 817.923C428.441 840.398 439.436 867.393 442.493 895.821C445.551 924.25 440.547 952.965 428.054 978.683C415.561 1004.4 396.084 1026.09 371.848 1041.26C347.612 1056.43 319.597 1064.47 291.004 1064.47C262.412 1064.47 234.397 1056.43 210.161 1041.26C185.925 1026.09 166.448 1004.4 153.955 978.683C141.462 952.965 136.458 924.25 139.515 895.821C142.573 867.393 153.568 840.398 171.243 817.923C150.123 791.067 138.641 757.893 138.641 723.727C138.641 689.561 150.123 656.386 171.243 629.53V629.601Z" fill="#00BA88"/>
<path opacity="0.1" d="M443.368 723.798C443.42 757.973 431.933 791.164 410.766 817.995C428.442 840.469 439.437 867.464 442.494 895.892C445.551 924.321 440.547 953.036 428.055 978.755C415.562 1004.47 396.084 1026.16 371.849 1041.33C347.613 1056.5 319.598 1064.55 291.005 1064.55C262.413 1064.55 234.397 1056.5 210.162 1041.33C185.926 1026.16 166.448 1004.47 153.956 978.755C141.463 953.036 136.459 924.321 139.516 895.892C142.573 867.464 153.568 840.469 171.244 817.995C150.824 792.129 443.368 706.702 443.368 723.798Z" fill="#0088A6"/>
</g>
<g opacity="0.1">
<path opacity="0.1" d="M801.432 1324.88C818.998 1324.88 833.238 1306.24 833.238 1283.25C833.238 1260.25 818.998 1241.61 801.432 1241.61C783.867 1241.61 769.627 1260.25 769.627 1283.25C769.627 1306.24 783.867 1324.88 801.432 1324.88Z" fill="#4E4B66"/>
<path opacity="0.1" d="M826.608 1105.06C831.039 1097.31 833.327 1088.53 833.238 1079.61C833.238 1056.63 819.095 1037.96 801.415 1037.96C783.736 1037.96 769.592 1056.61 769.592 1079.61C769.511 1088.54 771.819 1097.32 776.275 1105.06C771.917 1112.83 769.628 1121.59 769.628 1130.51C769.628 1139.42 771.917 1148.18 776.275 1155.96C771.917 1163.73 769.628 1172.49 769.628 1181.4C769.628 1190.31 771.917 1199.07 776.275 1206.84C771.833 1214.58 769.538 1223.37 769.627 1232.3C769.627 1255.28 783.877 1273.93 801.45 1273.93C819.024 1273.93 833.274 1255.3 833.274 1232.3C833.36 1223.37 831.072 1214.59 826.644 1206.84C830.992 1199.06 833.275 1190.3 833.275 1181.4C833.275 1172.49 830.992 1163.73 826.644 1155.96C830.992 1148.18 833.275 1139.42 833.275 1130.51C833.275 1121.6 830.992 1112.83 826.644 1105.06H826.608Z" fill="#4E4B66"/>
<path opacity="0.1" d="M801.432 1070.4C818.998 1070.4 833.238 1051.76 833.238 1028.77C833.238 1005.77 818.998 987.134 801.432 987.134C783.867 987.134 769.627 1005.77 769.627 1028.77C769.627 1051.76 783.867 1070.4 801.432 1070.4Z" fill="#4E4B66"/>
<path opacity="0.1" d="M801.432 1019.52C818.998 1019.52 833.238 1000.88 833.238 977.888C833.238 954.893 818.998 936.252 801.432 936.252C783.867 936.252 769.627 954.893 769.627 977.888C769.627 1000.88 783.867 1019.52 801.432 1019.52Z" fill="#4E4B66"/>
<path opacity="0.1" d="M682.431 629.6C678.08 624.068 674.121 618.237 670.586 612.151L754.157 598.431L663.779 599.103C655.107 580.235 650.376 559.796 649.874 539.037C649.373 518.278 653.111 497.634 660.862 478.369L782.144 541.291L670.285 459.063C680.771 440.969 694.869 425.226 711.702 412.816C728.534 400.406 747.742 391.593 768.128 386.927C788.514 382.26 809.642 381.84 830.197 385.693C850.753 389.545 870.295 397.587 887.608 409.319C904.92 421.05 919.633 436.22 930.83 453.884C942.026 471.547 949.467 491.326 952.689 511.99C955.911 532.653 954.844 553.759 949.557 573.993C944.269 594.226 934.873 613.155 921.954 629.6C928.725 638.206 934.546 647.518 939.315 657.375L830.763 713.737L946.44 674.842C954.566 698.853 956.576 724.511 952.288 749.494C948 774.477 937.55 797.996 921.883 817.923C939.559 840.398 950.553 867.392 953.611 895.821C956.668 924.249 951.664 952.964 939.171 978.683C926.678 1004.4 907.201 1026.09 882.965 1041.26C858.73 1056.43 830.714 1064.47 802.122 1064.47C773.529 1064.47 745.514 1056.43 721.278 1041.26C697.043 1026.09 677.565 1004.4 665.072 978.683C652.579 952.964 647.575 924.249 650.633 895.821C653.69 867.392 664.685 840.398 682.36 817.923C661.24 791.067 649.758 757.892 649.758 723.726C649.758 689.56 661.24 656.386 682.36 629.53L682.431 629.6Z" fill="#00BA88"/>
<path opacity="0.1" d="M954.483 723.797C954.536 757.971 943.048 791.162 921.882 817.993C939.557 840.468 950.552 867.462 953.609 895.891C956.666 924.319 951.663 953.034 939.17 978.753C926.677 1004.47 907.199 1026.16 882.964 1041.33C858.728 1056.5 830.713 1064.54 802.12 1064.54C773.528 1064.54 745.512 1056.5 721.277 1041.33C697.041 1026.16 677.564 1004.47 665.071 978.753C652.578 953.034 647.574 924.319 650.631 895.891C653.689 867.462 664.683 840.468 682.359 817.993C661.939 792.128 954.483 706.7 954.483 723.797Z" fill="#0088A6"/>
</g>
<path d="M1501.28 1120.63C1505.14 1113.89 1507.14 1106.24 1507.06 1098.46C1507.06 1078.43 1494.68 1062.2 1479.35 1062.2C1464.03 1062.2 1451.65 1078.43 1451.65 1098.46C1451.57 1106.24 1453.57 1113.89 1457.43 1120.63C1453.64 1127.41 1451.65 1135.04 1451.65 1142.8C1451.65 1150.57 1453.64 1158.2 1457.43 1164.97C1453.64 1171.75 1451.65 1179.38 1451.65 1187.14C1451.65 1194.91 1453.64 1202.54 1457.43 1209.31C1453.64 1216.09 1451.65 1223.72 1451.65 1231.48C1451.65 1239.25 1453.64 1246.88 1457.43 1253.65C1453.57 1260.4 1451.57 1268.05 1451.65 1275.82C1451.65 1295.85 1464.03 1312.1 1479.35 1312.1C1494.68 1312.1 1507.06 1295.85 1507.06 1275.82C1507.14 1268.05 1505.14 1260.4 1501.28 1253.65C1505.07 1246.88 1507.06 1239.25 1507.06 1231.48C1507.06 1223.72 1505.07 1216.09 1501.28 1209.31C1505.07 1202.54 1507.06 1194.91 1507.06 1187.14C1507.06 1179.38 1505.07 1171.75 1501.28 1164.97C1505.07 1158.2 1507.06 1150.57 1507.06 1142.8C1507.06 1135.04 1505.07 1127.41 1501.28 1120.63Z" fill="#4E4B66"/>
<path d="M1479.36 1090.42C1494.66 1090.42 1507.06 1074.18 1507.06 1054.14C1507.06 1034.1 1494.66 1017.86 1479.36 1017.86C1464.06 1017.86 1451.65 1034.1 1451.65 1054.14C1451.65 1074.18 1464.06 1090.42 1479.36 1090.42Z" fill="#4E4B66"/>
<path d="M1479.36 1046.08C1494.66 1046.08 1507.06 1029.84 1507.06 1009.8C1507.06 989.764 1494.66 973.521 1479.36 973.521C1464.06 973.521 1451.65 989.764 1451.65 1009.8C1451.65 1029.84 1464.06 1046.08 1479.36 1046.08Z" fill="#4E4B66"/>
<path d="M1375.61 706.385C1371.83 701.567 1368.39 696.492 1365.3 691.198L1438.11 679.229L1359.36 679.812C1351.82 663.38 1347.7 645.58 1347.26 627.503C1346.83 609.425 1350.09 591.448 1356.84 574.672L1462.47 629.479L1365.04 557.823C1374.14 541.996 1386.41 528.216 1401.07 517.344C1415.74 506.472 1432.49 498.742 1450.28 494.637C1468.07 490.531 1486.51 490.139 1504.46 493.485C1522.41 496.831 1539.47 503.842 1554.59 514.082C1569.7 524.321 1582.54 537.567 1592.3 552.994C1602.07 568.42 1608.55 585.694 1611.33 603.737C1614.12 621.78 1613.15 640.203 1608.49 657.856C1603.84 675.508 1595.59 692.011 1584.27 706.332C1590.16 713.835 1595.24 721.949 1599.4 730.535L1504.9 779.755L1605.68 745.934C1612.75 766.854 1614.5 789.206 1610.76 810.972C1607.03 832.737 1597.93 853.228 1584.28 870.592C1599.69 890.17 1609.28 913.689 1611.95 938.458C1614.62 963.228 1610.26 988.25 1599.38 1010.66C1588.5 1033.07 1571.53 1051.97 1550.41 1065.19C1529.3 1078.41 1504.89 1085.42 1479.97 1085.42C1455.06 1085.42 1430.65 1078.41 1409.53 1065.19C1388.42 1051.97 1371.45 1033.07 1360.57 1010.66C1349.69 988.25 1345.33 963.228 1348 938.458C1350.67 913.689 1360.26 890.17 1375.66 870.592C1357.27 847.191 1347.27 818.289 1347.27 788.524C1347.27 758.759 1357.27 729.857 1375.66 706.455L1375.61 706.385Z" fill="#00BA88"/>
<path opacity="0.1" d="M1612.68 788.451C1612.72 818.223 1602.72 847.14 1584.28 870.519C1599.69 890.097 1609.28 913.615 1611.95 938.385C1614.62 963.155 1610.26 988.176 1599.38 1010.59C1588.5 1033 1571.53 1051.9 1550.41 1065.12C1529.3 1078.34 1504.89 1085.35 1479.97 1085.35C1455.06 1085.35 1430.65 1078.34 1409.53 1065.12C1388.42 1051.9 1371.45 1033 1360.57 1010.59C1349.68 988.176 1345.33 963.155 1348 938.385C1350.67 913.615 1360.26 890.097 1375.66 870.519C1357.79 847.925 1612.68 773.547 1612.68 788.451Z" fill="#0088A6"/>
<path d="M486.876 1133.54C490.973 1126.4 493.091 1118.29 493.011 1110.06C493.011 1088.85 479.875 1071.64 463.663 1071.64C447.451 1071.64 434.315 1088.85 434.315 1110.06C434.234 1118.29 436.352 1126.4 440.45 1133.54C436.428 1140.71 434.316 1148.8 434.316 1157.02C434.316 1165.24 436.428 1173.32 440.45 1180.5C436.428 1187.67 434.316 1195.75 434.316 1203.97C434.316 1212.2 436.428 1220.28 440.45 1227.45C436.428 1234.62 434.315 1242.7 434.315 1250.92C434.315 1259.14 436.428 1267.22 440.45 1274.39C436.357 1281.54 434.239 1289.64 434.315 1297.87C434.315 1319.09 447.451 1336.29 463.663 1336.29C479.875 1336.29 493.011 1319.09 493.011 1297.87C493.086 1289.64 490.969 1281.54 486.876 1274.39C490.898 1267.22 493.01 1259.14 493.01 1250.92C493.01 1242.7 490.898 1234.62 486.876 1227.45C490.898 1220.28 493.01 1212.2 493.01 1203.97C493.01 1195.75 490.898 1187.67 486.876 1180.5C490.898 1173.32 493.01 1165.24 493.01 1157.02C493.01 1148.8 490.898 1140.71 486.876 1133.54Z" fill="#4E4B66"/>
<path d="M463.664 1101.54C479.873 1101.54 493.013 1084.34 493.013 1063.12C493.013 1041.9 479.873 1024.7 463.664 1024.7C447.456 1024.7 434.316 1041.9 434.316 1063.12C434.316 1084.34 447.456 1101.54 463.664 1101.54Z" fill="#4E4B66"/>
<path d="M463.664 1054.58C479.873 1054.58 493.013 1037.38 493.013 1016.16C493.013 994.946 479.873 977.746 463.664 977.746C447.456 977.746 434.316 994.946 434.316 1016.16C434.316 1037.38 447.456 1054.58 463.664 1054.58Z" fill="#4E4B66"/>
<path d="M573.526 694.891C577.529 689.783 581.179 684.408 584.452 678.803L507.404 666.109L590.799 666.728C598.801 649.322 603.166 630.466 603.628 611.314C604.09 592.163 600.639 573.118 593.486 555.347L481.539 613.389L584.717 537.543C575.032 520.872 562.021 506.371 546.493 494.942C530.965 483.513 513.252 475.401 494.455 471.11C475.658 466.819 456.179 466.44 437.23 469.998C418.28 473.556 400.265 480.974 384.305 491.791C368.344 502.607 354.78 516.592 344.455 532.875C334.129 549.157 327.264 567.39 324.286 586.439C321.307 605.488 322.279 624.947 327.142 643.604C332.004 662.261 340.652 679.719 352.549 694.891C346.299 702.832 340.928 711.428 336.532 720.527L436.686 772.487L329.955 736.668C322.468 758.821 320.619 782.489 324.577 805.535C328.534 828.581 338.172 850.278 352.62 868.664C336.314 889.399 326.172 914.304 323.352 940.532C320.533 966.76 325.15 993.252 336.676 1016.98C348.203 1040.71 366.173 1060.71 388.532 1074.71C410.892 1088.7 436.738 1096.13 463.117 1096.13C489.496 1096.13 515.342 1088.7 537.702 1074.71C560.061 1060.71 578.032 1040.71 589.558 1016.98C601.084 993.252 605.701 966.76 602.882 940.532C600.063 914.304 589.92 889.399 573.614 868.664C593.096 843.885 603.686 813.28 603.686 781.76C603.686 750.24 593.096 719.635 573.614 694.856L573.526 694.891Z" fill="#00BA88"/>
<path opacity="0.1" d="M322.475 781.769C322.426 813.292 333.016 843.908 352.53 868.664C336.224 889.4 326.082 914.305 323.262 940.533C320.443 966.76 325.06 993.252 336.587 1016.98C348.113 1040.71 366.083 1060.71 388.442 1074.71C410.802 1088.7 436.648 1096.13 463.027 1096.13C489.406 1096.13 515.253 1088.7 537.612 1074.71C559.972 1060.71 577.942 1040.71 589.468 1016.98C600.994 993.252 605.612 966.76 602.792 940.533C599.973 914.305 589.83 889.4 573.525 868.664C592.353 844.744 322.475 765.982 322.475 781.769Z" fill="#0088A6"/>
<path d="M960 1378.54C1490.19 1378.54 1920 1357.54 1920 1331.64C1920 1305.73 1490.19 1284.73 960 1284.73C429.807 1284.73 0 1305.73 0 1331.64C0 1357.54 429.807 1378.54 960 1378.54Z" fill="#D9DBE9"/>
<path d="M1028.95 1154.26C1028.47 1154.38 1028.03 1154.61 1027.66 1154.94C1027.29 1155.26 1027.01 1155.67 1026.83 1156.13H1026.49L1025.19 1155.92C1025.19 1155.92 1018.33 1155.35 1017.05 1155.44C1016.63 1155.43 1016.23 1155.32 1015.86 1155.11C1015.5 1154.91 1015.19 1154.61 1014.97 1154.26L1009.86 1149.94L1009.47 1149.61L1010.37 1149.29C1010.37 1149.29 996.668 1132.28 993.716 1131.95C990.763 1131.61 985.884 1127.65 985.831 1127.6V1127.33C985.725 1126.77 985.654 1126.18 985.583 1125.56L986.308 1126.01C986.308 1125.81 986.308 1125.62 986.308 1125.41C986.422 1123.31 987.133 1121.28 988.359 1119.57C989.791 1117.59 991.895 1116.04 992.744 1113.75C993.077 1112.77 993.226 1111.73 993.186 1110.7C993.212 1108.83 992.723 1107 991.771 1105.39C991.281 1104.59 990.629 1103.9 989.855 1103.37C989.081 1102.83 988.204 1102.47 987.281 1102.3C986.803 1102.3 986.308 1102.3 985.831 1102.1C982.967 1101.43 981.924 1097.6 979.148 1096.66C977.817 1096.31 976.403 1096.45 975.17 1097.07C973.915 1097.6 972.801 1098.37 971.634 1098.97C970.342 1099.49 969.099 1100.12 967.921 1100.87L967.568 1101.17L967.338 1101.38C966.879 1101.85 966.48 1102.37 966.154 1102.93V1103.02C966.154 1103.02 966.154 1103.15 966.065 1103.2V1103.34V1103.52V1103.68V1103.84V1104.01V1104.17V1104.37C966.071 1104.41 966.071 1104.46 966.065 1104.51C966.065 1104.51 966.065 1104.63 966.065 1104.7C966.055 1104.75 966.055 1104.8 966.065 1104.84C966.055 1104.91 966.055 1104.97 966.065 1105.04V1105.37C966.073 1105.41 966.073 1105.45 966.065 1105.48V1105.78C966.386 1106.48 966.836 1107.12 967.391 1107.66L967.232 1107.81C966.057 1108.94 965.122 1110.29 964.484 1111.79C963.846 1113.29 963.518 1114.9 963.519 1116.53C963.521 1117.25 963.586 1117.98 963.714 1118.69C963.086 1118.21 962.411 1117.8 961.698 1117.47C959.349 1116.33 956.777 1115.73 954.167 1115.7C950.709 1115.49 947.28 1114.94 943.93 1114.06C944.077 1114.35 944.189 1114.66 944.266 1114.97L943.418 1114.5C940.925 1113.16 938.223 1112.25 935.426 1111.81C935.426 1111.81 933.658 1112.06 933.429 1108.27C933.342 1107.11 933.129 1105.96 932.792 1104.84C931.532 1101.47 930.579 1097.99 929.946 1094.45L929.38 1088.95C929.38 1088.95 932.05 1074.68 930.441 1068.64C930.767 1067.77 930.799 1066.82 930.53 1065.93C930.262 1065.04 929.709 1064.26 928.956 1063.72C922.238 1058.77 915.449 1078.06 915.449 1078.06L912.92 1080.5C912.273 1080.08 911.544 1079.8 910.781 1079.69C909.61 1081.2 908.822 1082.98 908.483 1084.87C907.988 1086.88 904.558 1090.17 901.411 1092.95C899.219 1094.87 897.097 1096.87 894.993 1098.87C893.42 1100.35 889.937 1102.4 882.335 1103.68L879.064 1104.21C879.32 1103.31 879.451 1102.38 879.453 1101.45C879.443 1099.1 878.634 1096.83 877.159 1095C875.684 1093.18 873.631 1091.91 871.338 1091.41C871.373 1091.16 871.373 1090.91 871.338 1090.67C871.207 1090.14 870.939 1089.66 870.56 1089.27C869.118 1087.15 867.15 1085.45 864.85 1084.32C863.865 1083.94 862.81 1083.77 861.756 1083.82H860.996C859.874 1083.88 858.778 1084.18 857.781 1084.7C856.784 1085.22 855.909 1085.95 855.214 1086.83C854.366 1087.98 853.853 1089.32 853.11 1090.54C851.637 1092.74 849.662 1094.56 847.347 1095.85C845.986 1096.66 844.536 1097.38 843.245 1098.32C840.947 1100.09 839.193 1102.46 838.186 1105.18C837.179 1107.9 836.959 1110.85 837.552 1113.68C838.083 1116.16 839.179 1118.6 838.878 1121.11C838.511 1123.03 837.707 1124.85 836.527 1126.41C835.351 1128.01 834.466 1129.81 833.91 1131.72C833.653 1132.66 833.669 1133.67 833.957 1134.6C834.245 1135.54 834.793 1136.38 835.537 1137.02C836.159 1137.37 836.75 1137.77 837.305 1138.22C837.638 1138.62 837.918 1139.06 838.136 1139.53C838.989 1141.07 840.145 1142.42 841.534 1143.5C842.922 1144.57 844.515 1145.36 846.215 1145.81C846.757 1145.95 847.318 1146.01 847.877 1145.98H848.054C848.637 1146.11 849.243 1146.04 849.785 1145.79C850.326 1145.54 850.773 1145.13 851.06 1144.61C851.12 1144.35 851.215 1144.1 851.342 1143.86C851.462 1143.7 851.638 1143.58 851.838 1143.53C852.253 1143.61 852.653 1143.76 853.022 1143.97C854.8 1144.88 856.741 1145.43 858.732 1145.58C859.068 1145.6 859.405 1145.6 859.74 1145.58C860.437 1145.65 861.139 1145.55 861.791 1145.3C862.419 1144.98 862.959 1144.51 863.365 1143.93L863.63 1143.58C863.166 1146.36 862.296 1149.05 861.049 1151.57C859.83 1153.7 859.167 1156.1 859.122 1158.55C859.037 1159.83 859.306 1161.1 859.899 1162.23L860.094 1161.84C861.161 1163.75 862.449 1165.53 863.93 1167.15C864.115 1169.92 863.99 1172.7 863.559 1175.44C862.541 1178.88 862.627 1182.55 863.803 1185.93C864.98 1189.32 867.188 1192.25 870.118 1194.32L872.293 1199.09L863.329 1199.73C862.428 1199.61 850.688 1197.96 850.635 1200.31C850.582 1202.67 852.403 1225.95 858.485 1224.38C864.16 1222.91 862.286 1216.12 862.021 1215.22H862.215H862.003L866.529 1210.92C866.575 1210.66 866.569 1210.4 866.511 1210.15C866.454 1209.89 866.345 1209.65 866.193 1209.44L877.137 1209.93L879.701 1215.55C879.701 1215.55 884.067 1222.2 880.531 1227.79C876.996 1233.37 873.318 1242.13 872.735 1247.41C872.021 1251.11 870.351 1254.56 867.891 1257.42C865.84 1258.13 857.972 1261.2 861.102 1265.89C864.638 1271.19 876.394 1281.45 881.115 1281.09C885.835 1280.74 883.944 1277.31 883.944 1277.31L880.001 1273.45C879.662 1269.93 879.521 1266.39 879.577 1262.85C879.614 1262.29 879.459 1261.74 879.137 1261.28C878.815 1260.82 878.346 1260.49 877.809 1260.34C878.18 1257.67 879.117 1252.65 881.133 1249.85C883.979 1245.94 893.066 1228.78 893.066 1228.78C893.066 1228.78 895.948 1226.21 895.312 1218.58C895.046 1215.5 894.905 1212.8 894.817 1210.66L905.106 1211.12C905.106 1211.12 916.138 1210.02 908.642 1198.19C901.146 1186.36 885.217 1174.77 885.217 1174.77L885.075 1167.45L886.224 1167.73C886.224 1167.73 886.224 1167.47 886.047 1166.99H886.224C884.914 1161.14 883.94 1155.22 883.307 1149.26L883.961 1149.56C890.803 1157.48 895.418 1150.78 895.418 1150.78C895.418 1150.78 909.879 1130.46 908.465 1131.33C908.314 1131.39 908.152 1131.43 907.988 1131.43C907.824 1131.43 907.661 1131.39 907.51 1131.33L908.554 1128C908.554 1128 912.832 1121.48 906.626 1117.8C901.57 1114.82 901.694 1124.2 901.924 1127.76L901.676 1127.53C901.676 1127.53 896.832 1134.81 894.233 1138.9C891.634 1142.98 889.46 1140.29 889.46 1140.29L886.171 1136.6C886.707 1135.11 886.97 1133.54 886.949 1131.96C887.021 1130.87 886.86 1129.76 886.476 1128.73C886.092 1127.7 885.494 1126.76 884.721 1125.97C882.777 1124.16 881.595 1121.68 881.415 1119.02C881.439 1118.04 881.662 1117.07 882.07 1116.18L899.13 1107.14C899.13 1107.14 902.666 1107.14 907.564 1099.75C910.702 1094.98 914.157 1090.43 917.906 1086.12L917.623 1085.73L917.906 1085.41C917.906 1085.41 917.712 1085.13 917.358 1084.69L919.992 1081.65C919.922 1083.02 919.922 1084.4 919.992 1085.77L921.336 1090.38L922.114 1116C922.114 1116 921.283 1118.46 926.604 1120.9C931.095 1122.97 938.22 1126.47 940.288 1127.47C940.252 1127.58 940.211 1127.68 940.165 1127.77H940.783C951.161 1126.84 950.808 1137.2 950.808 1137.2C950.808 1137.2 951.515 1158.29 948.333 1165.63C946.336 1170.86 945.41 1176.45 945.61 1182.05C945.61 1182.05 945.928 1180.51 947.714 1182.53L947.59 1183.09C946.582 1188.19 944.478 1199.01 944.054 1203.37C943.624 1207.37 942.855 1211.33 941.756 1215.2L940.695 1234.65L947.343 1234.97V1235.66C947.325 1236.02 947.214 1236.38 947.018 1236.69C946.823 1237 946.551 1237.25 946.229 1237.42C943.948 1238.66 938.591 1242.99 939.015 1256.32L938.786 1258.51C938.415 1262.15 937.314 1265.67 935.55 1268.88C935.398 1269.13 935.262 1269.39 935.144 1269.65C935.158 1269.51 935.221 1269.38 935.32 1269.28C935.32 1269.28 931.873 1269.99 932.58 1279.31C933.287 1288.62 934.348 1290.27 935.762 1290.37C937.177 1290.48 944.089 1292.14 943.736 1288.75C943.382 1285.35 943.029 1277.68 943.506 1276.51C943.983 1275.35 945.84 1272.22 944.054 1271.46C944.572 1269.32 944.822 1267.13 944.797 1264.93C946.495 1262.21 948.493 1259.69 950.755 1257.42C953.23 1255.37 954.573 1251.9 955.475 1247.45C955.475 1247.16 962.794 1242.32 961.734 1238.31C961.557 1237.62 961.415 1237.03 961.309 1236.54C961.309 1236.27 961.309 1236.04 961.186 1235.83H961.327L962.794 1226.99V1235.62L963.678 1235.73V1236.43L963.307 1244.69C963.239 1246.3 962.88 1247.89 962.246 1249.37C959.422 1255.94 958.169 1263.08 958.587 1270.22L958.498 1278.16C958.251 1278.16 954.644 1279.06 955.334 1288.06C956.041 1297.37 957.102 1299 958.516 1299.12C959.93 1299.25 966.843 1300.89 966.489 1297.5C966.136 1294.1 965.782 1286.43 966.242 1285.26C966.702 1284.1 967.533 1281.02 965.747 1280.26C965.756 1279.22 966.01 1278.2 966.489 1277.27C967.267 1275.95 969.866 1269.65 971.793 1264.81C973.79 1259.91 974.903 1254.7 975.082 1249.41V1249.23C975.137 1247.45 975.521 1245.7 976.213 1244.05C976.999 1242.2 977.632 1240.29 978.105 1238.34C978.105 1238.11 978.105 1237.88 978.229 1237.67L979.908 1237.88L985.707 1212.85C985.707 1212.85 987.281 1199.27 986.52 1193.14C986.52 1192.89 986.52 1192.64 986.414 1192.43H986.768C986.768 1192.43 987.952 1189.41 987.599 1176.52C987.245 1163.63 989.95 1159.51 989.95 1159.51C991.418 1154.86 993.044 1153.3 993.981 1152.77C994.229 1152.63 994.507 1152.53 994.794 1152.51L999.179 1157.53L999.992 1158.45L1000.36 1158.86C1000.35 1158.65 1000.35 1158.44 1000.36 1158.24C1002.7 1159.6 1008.11 1162.76 1011.32 1165.04C1015.53 1168.01 1016.63 1167.68 1020.36 1167.36C1022.89 1166.95 1025.34 1166.15 1027.63 1164.97H1027.8C1028.36 1165.27 1028.96 1165.5 1029.57 1165.66C1029.57 1165.66 1035.51 1170.68 1036.08 1161.51C1036.64 1152.33 1028.95 1154.26 1028.95 1154.26ZM874.962 1261.1C874.349 1260.92 873.757 1260.67 873.194 1260.37L874.962 1261.1ZM865.681 1161.77V1163.08C865.645 1162.67 865.663 1162.21 865.681 1161.77ZM958.481 1278.07V1278.58C958.375 1278.32 958.322 1278.32 958.481 1278.07Z" fill="url(#paint1_linear)"/>
<path d="M977.433 1125.42H967.355V1136.01H977.433V1125.42Z" fill="#00BA88"/>
<path d="M955.103 1247.77C954.219 1252.19 952.911 1255.63 950.471 1257.67C948.249 1259.93 946.287 1262.43 944.619 1265.13C944.619 1272.38 942.656 1274.57 942.656 1274.57L940.694 1275.1H935.832C935.37 1273.84 935.021 1272.54 934.789 1271.21C934.85 1270.44 935.112 1269.69 935.549 1269.05C937.283 1265.87 938.365 1262.37 938.732 1258.76L938.944 1256.62C938.537 1243.37 943.788 1239.05 946.016 1237.83C946.333 1237.65 946.599 1237.4 946.791 1237.09C946.982 1236.78 947.093 1236.43 947.112 1236.06L947.501 1232.28L960.584 1232.92C960.428 1234.19 960.506 1235.49 960.813 1236.74C960.813 1237.28 961.043 1237.9 961.22 1238.59C962.281 1242.68 955.156 1247.47 955.103 1247.77Z" fill="#A0616A"/>
<path d="M977.29 1238.61C976.871 1240.54 976.28 1242.44 975.522 1244.27C974.846 1245.91 974.468 1247.65 974.409 1249.43V1249.6C974.237 1254.86 973.148 1260.04 971.191 1264.91C969.264 1269.72 966.718 1275.98 965.887 1277.29C965.134 1279.16 964.956 1281.22 965.374 1283.2L958.002 1282.68L958.126 1270.31C957.692 1263.22 958.902 1256.13 961.662 1249.59C962.273 1248.11 962.62 1246.53 962.687 1244.94L963.058 1236.72L963.164 1234.29C963.164 1234.29 976.194 1232.44 977.308 1235.39C977.573 1236.45 977.567 1237.55 977.29 1238.61Z" fill="#A0616A"/>
<path d="M955.103 1247.77C954.219 1252.19 952.911 1255.63 950.471 1257.67C948.249 1259.93 946.287 1262.43 944.619 1265.13C944.619 1272.38 942.656 1274.57 942.656 1274.57L940.694 1275.1H935.832C935.37 1273.84 935.021 1272.54 934.789 1271.21C934.85 1270.44 935.112 1269.69 935.549 1269.05C937.283 1265.87 938.365 1262.37 938.732 1258.76L938.944 1256.62C938.537 1243.37 943.788 1239.05 946.016 1237.83C946.333 1237.65 946.599 1237.4 946.791 1237.09C946.982 1236.78 947.093 1236.43 947.112 1236.06L947.501 1232.28L960.584 1232.92C960.428 1234.19 960.506 1235.49 960.813 1236.74C960.813 1237.28 961.043 1237.9 961.22 1238.59C962.281 1242.68 955.156 1247.47 955.103 1247.77Z" fill="#8E5362"/>
<path d="M977.29 1238.61C976.871 1240.54 976.28 1242.44 975.522 1244.27C974.846 1245.91 974.468 1247.65 974.409 1249.43V1249.6C974.237 1254.86 973.148 1260.04 971.191 1264.91C969.264 1269.72 966.718 1275.98 965.887 1277.29C965.134 1279.16 964.956 1281.22 965.374 1283.2L958.002 1282.68L958.126 1270.31C957.692 1263.22 958.902 1256.13 961.662 1249.59C962.273 1248.11 962.62 1246.53 962.687 1244.94L963.058 1236.72L963.164 1234.29C963.164 1234.29 976.194 1232.44 977.308 1235.39C977.573 1236.45 977.567 1237.55 977.29 1238.61Z" fill="#8E5362"/>
<path opacity="0.1" d="M960.831 1236.82L947.129 1236.15L947.518 1232.37L960.601 1233C960.445 1234.28 960.523 1235.57 960.831 1236.82Z" fill="#0088A6"/>
<path opacity="0.1" d="M977.29 1238.61L963.146 1236.7L963.253 1234.28C963.253 1234.28 976.282 1232.42 977.396 1235.37C977.636 1236.44 977.599 1237.56 977.29 1238.61Z" fill="#0088A6"/>
<path d="M984.753 1213.26L979.078 1238.15L962.282 1235.89V1227.33L960.832 1236.17L940.695 1235.18L941.738 1215.89C942.815 1212.05 943.566 1208.12 943.984 1204.15C944.373 1199.78 946.441 1189.04 947.52 1184C947.838 1182.23 948.05 1181.27 948.05 1181.27C948.05 1181.27 982.56 1188.45 984.823 1191.05C985.307 1191.85 985.581 1192.77 985.619 1193.7C986.309 1199.77 984.753 1213.26 984.753 1213.26Z" fill="#4E4B66"/>
<path opacity="0.1" d="M944.461 1214.88C944.461 1214.88 958.039 1207.81 961.345 1209.26L944.461 1214.88Z" fill="#0088A6"/>
<path opacity="0.1" d="M951.867 1191.69C951.867 1191.69 963.147 1200.26 963.5 1202.58L951.867 1191.69Z" fill="#0088A6"/>
<path opacity="0.1" d="M948.791 1221.12C948.791 1221.12 956.959 1220.79 959.558 1222.89L948.791 1221.12Z" fill="#0088A6"/>
<path opacity="0.1" d="M963.536 1211.97C963.536 1211.97 967.408 1224.66 965.729 1228.14C964.049 1231.63 962.316 1227.33 962.316 1227.33L963.536 1211.97Z" fill="#0088A6"/>
<path d="M958.056 1278.17C958.056 1278.17 954.22 1278.76 954.927 1288.02C955.634 1297.29 956.695 1298.9 958.056 1299.02C959.417 1299.14 966.206 1300.79 965.87 1297.39C965.535 1294 965.163 1286.4 965.641 1285.25C966.118 1284.1 966.896 1281.02 965.146 1280.26L964.757 1282.03C964.757 1282.03 961.062 1278.62 958.852 1281.11C958.763 1280.51 958.615 1279.92 958.41 1279.34C958.233 1278.79 957.703 1278.51 958.056 1278.17Z" fill="#4E4B66"/>
<path d="M1027.98 1164.51C1027.98 1164.51 1027.11 1164.99 1025.82 1165.61C1023.6 1166.76 1021.22 1167.56 1018.75 1167.98C1015.21 1168.28 1014.01 1168.63 1009.91 1165.68C1006.75 1163.42 1001.44 1160.25 999.143 1158.91L998.135 1158.31H998.029L999.939 1153L1006.71 1149.47L1008.48 1150.92L1013.48 1155.21C1013.7 1155.56 1014 1155.85 1014.35 1156.05C1014.71 1156.26 1015.11 1156.37 1015.51 1156.38C1016.77 1156.29 1023.51 1156.86 1023.51 1156.86L1024.78 1157.07L1027.47 1157.51L1027.98 1164.51Z" fill="#A0616A"/>
<path opacity="0.1" d="M1027.98 1164.51C1027.98 1164.51 1027.11 1164.99 1025.82 1165.61C1024.46 1164.92 1022.78 1163.61 1023.43 1161.47C1024.09 1159.33 1024.18 1158.02 1024.65 1156.95L1027.34 1157.39L1027.98 1164.51Z" fill="#0088A6"/>
<path d="M1027.08 1155.13C1027.08 1155.13 1034.62 1152.95 1034.06 1162.07C1033.49 1171.2 1027.68 1166.19 1027.68 1166.19C1027.68 1166.19 1022.73 1164.9 1023.77 1161.47C1024.81 1158.04 1024.51 1155.96 1027.08 1155.13Z" fill="#A0616A"/>
<path d="M948.739 1125.6L940.872 1128.91H940.748H940.66L940.165 1128.66C938.132 1127.65 931.148 1124.19 926.746 1122.12C921.442 1119.7 922.344 1117.26 922.344 1117.26L921.584 1091.78L920.258 1087.22C920.258 1087.22 919.303 1071.7 926.852 1067.77C934.401 1063.85 929.522 1090.22 929.522 1090.22L930.07 1095.7C930.459 1099.21 931.151 1102.67 932.138 1106.05C932.474 1107.15 932.682 1108.29 932.757 1109.44C932.987 1113.15 934.72 1112.98 934.72 1112.98C937.463 1113.4 940.113 1114.3 942.552 1115.63C943.456 1116.11 944.325 1116.66 945.15 1117.27L948.739 1125.6Z" fill="#A0616A"/>
<path d="M976.761 1137.76L970.043 1137.06C971.237 1135.25 972.193 1133.29 972.889 1131.24C973.014 1130.85 973.115 1130.46 973.19 1130.06C973.446 1129.06 973.313 1128 972.819 1127.1C970.856 1124.2 984.523 1120.15 984.523 1120.15C984.353 1121.76 984.3 1123.37 984.363 1124.98C984.414 1126.1 984.532 1127.21 984.717 1128.31C984.925 1130.42 985.93 1132.37 987.528 1133.77C991.824 1136.72 976.761 1137.76 976.761 1137.76Z" fill="#8E5362"/>
<path opacity="0.1" d="M976.761 1137.77L970.043 1137.06C971.237 1135.25 972.193 1133.29 972.889 1131.24C973.667 1132.36 973.932 1132.32 975.029 1132.55C975.029 1132.55 981.8 1133.56 984.717 1128.31C984.925 1130.42 985.93 1132.37 987.528 1133.77C991.824 1136.72 976.761 1137.77 976.761 1137.77Z" fill="#0088A6"/>
<path opacity="0.1" d="M999.072 1158.91C999.055 1159.12 999.055 1159.32 999.072 1159.53L998.029 1158.31L999.939 1153L1006.71 1149.47L1008.48 1150.92C1005.97 1151.7 999.196 1154.56 999.072 1158.91Z" fill="#0088A6"/>
<path opacity="0.1" d="M948.739 1125.6L940.872 1128.91H940.66H940.059L940.165 1128.61C940.819 1127.02 943.877 1119.24 942.551 1115.56C943.456 1116.04 944.325 1116.59 945.15 1117.2L948.739 1125.6Z" fill="#0088A6"/>
<path opacity="0.1" d="M985.547 1193.67C982.488 1193.38 951.832 1190.56 948.968 1186.05C948.522 1185.31 948.013 1184.61 947.447 1183.96C947.765 1182.19 947.978 1181.24 947.978 1181.24C947.978 1181.24 982.488 1188.42 984.751 1191.02C985.235 1191.82 985.508 1192.73 985.547 1193.67Z" fill="#0088A6"/>
<path d="M975.028 1132.88C975.028 1132.88 981.87 1133.91 984.769 1128.57C984.769 1128.57 989.613 1132.55 992.513 1132.9C995.412 1133.26 1008.83 1150.14 1008.83 1150.14C1008.83 1150.14 998.064 1153.68 998.753 1159.17L993.591 1153.27C993.591 1153.27 991.045 1153.16 988.853 1160.22C988.853 1160.22 986.183 1164.27 986.537 1177.12C986.891 1189.97 985.724 1193.03 985.724 1193.03C985.724 1193.03 951.903 1190.13 948.897 1185.37C945.892 1180.62 945.361 1182.95 945.361 1182.95C945.159 1177.39 946.061 1171.83 948.013 1166.62C951.142 1159.33 950.453 1138.33 950.453 1138.33C950.453 1138.33 950.789 1128.02 940.605 1128.96C940.605 1128.96 944.884 1118.99 942.921 1115.17C946.205 1116.05 949.569 1116.6 952.963 1116.81C955.527 1116.85 958.052 1117.45 960.354 1118.58C961.541 1119.1 962.589 1119.89 963.412 1120.9C964.005 1121.7 964.848 1122.28 965.808 1122.55C966.767 1122.83 967.79 1122.77 968.716 1122.4C969.535 1124.95 970.546 1127.43 971.739 1129.83L972.146 1130.57C972.358 1130.9 972.552 1131.24 972.764 1131.54C972.975 1131.96 973.3 1132.3 973.701 1132.54C974.102 1132.78 974.562 1132.9 975.028 1132.88Z" fill="#00BA88"/>
<path opacity="0.1" d="M984.363 1124.98C983.996 1125.5 983.588 1125.99 983.143 1126.45C982.012 1127.61 980.659 1128.53 979.165 1129.16C977.67 1129.79 976.065 1130.11 974.444 1130.11C974.02 1130.11 973.596 1130.11 973.189 1130.11C973.445 1129.11 973.312 1128.06 972.818 1127.16C970.855 1124.26 984.522 1120.21 984.522 1120.21C984.355 1121.79 984.302 1123.39 984.363 1124.98Z" fill="#0088A6"/>
<path d="M986.608 1117.61C986.608 1120.01 985.895 1122.37 984.558 1124.37C983.222 1126.37 981.322 1127.93 979.1 1128.85C976.877 1129.77 974.431 1130.01 972.072 1129.54C969.712 1129.07 967.545 1127.91 965.844 1126.21C964.143 1124.51 962.984 1122.34 962.515 1119.98C962.046 1117.62 962.287 1115.18 963.207 1112.95C964.128 1110.73 965.687 1108.83 967.687 1107.5C969.687 1106.16 972.039 1105.45 974.445 1105.45C976.045 1105.43 977.632 1105.74 979.114 1106.35C980.595 1106.95 981.94 1107.85 983.072 1108.98C984.204 1110.11 985.099 1111.46 985.706 1112.94C986.314 1114.42 986.62 1116.01 986.608 1117.61Z" fill="#A0616A"/>
<path opacity="0.1" d="M992.619 1145.4L992.867 1153.54C992.867 1153.54 996.509 1150.62 996.615 1147.82C996.721 1145.03 992.619 1145.4 992.619 1145.4Z" fill="#0088A6"/>
<path opacity="0.1" d="M963.324 1153.53C963.324 1153.53 972.889 1166.65 978.44 1167.98C983.992 1169.3 965.41 1157.79 963.324 1153.53Z" fill="#0088A6"/>
<path opacity="0.1" d="M973.455 1154.9C973.455 1154.9 978.759 1160.91 982.613 1161.67L973.455 1154.9Z" fill="#0088A6"/>
<path opacity="0.1" d="M954.695 1170.06C954.695 1170.06 964.419 1179.61 969.988 1180.19L954.695 1170.06Z" fill="#0088A6"/>
<path opacity="0.1" d="M986.607 1117.61C986.593 1120.79 985.323 1123.84 983.071 1126.1L981.727 1125.28C981.217 1125.01 980.775 1124.62 980.437 1124.15C980.102 1123.35 980.004 1122.48 980.154 1121.62C980.255 1120.72 980.148 1119.81 979.841 1118.96C979.535 1118.11 979.037 1117.34 978.386 1116.71C976.07 1114.94 972.375 1115.88 970.059 1114.07C969.497 1113.59 968.998 1113.04 968.574 1112.43L966.382 1109.49L965.922 1108.93C967.632 1107.25 969.8 1106.11 972.153 1105.66C974.506 1105.21 976.941 1105.47 979.15 1106.39C981.36 1107.32 983.246 1108.88 984.573 1110.87C985.9 1112.87 986.607 1115.21 986.607 1117.61Z" fill="#0088A6"/>
<path d="M967.071 1102.05C968.218 1101.31 969.432 1100.68 970.696 1100.16C971.898 1099.56 972.994 1098.78 974.232 1098.25C975.435 1097.64 976.821 1097.5 978.121 1097.86C980.844 1098.8 981.869 1102.6 984.68 1103.27C985.14 1103.38 985.635 1103.38 986.112 1103.47C987.019 1103.64 987.88 1104 988.638 1104.53C989.397 1105.05 990.036 1105.74 990.515 1106.52C991.446 1108.14 991.928 1109.97 991.911 1111.83C991.943 1112.86 991.793 1113.89 991.469 1114.87C990.638 1117.13 988.57 1118.69 987.155 1120.65C985.835 1122.52 985.131 1124.76 985.14 1127.05L981.745 1124.95C981.235 1124.67 980.793 1124.29 980.455 1123.82C980.121 1123.02 980.023 1122.15 980.172 1121.3C980.273 1120.4 980.166 1119.49 979.859 1118.63C979.553 1117.78 979.055 1117.01 978.404 1116.37C976.088 1114.6 972.393 1115.56 970.077 1113.74C969.506 1113.26 969.006 1112.71 968.592 1112.09C967.867 1111.12 967.124 1110.15 966.4 1109.16C965.752 1108.51 965.215 1107.77 964.808 1106.95C964.313 1105.27 965.887 1102.97 967.071 1102.05Z" fill="#4E4B66"/>
<path opacity="0.1" d="M982.187 1124.5C981.669 1124.24 981.22 1123.86 980.879 1123.39C980.544 1122.59 980.446 1121.72 980.596 1120.86C980.701 1119.96 980.596 1119.05 980.289 1118.2C979.982 1117.35 979.482 1116.57 978.828 1115.95C976.53 1114.18 972.835 1115.12 970.501 1113.31C969.939 1112.83 969.44 1112.28 969.016 1111.67C968.291 1110.7 967.566 1109.71 966.824 1108.73C966.172 1108.09 965.634 1107.33 965.233 1106.51C965.16 1105.73 965.268 1104.95 965.547 1104.22C965.826 1103.5 966.269 1102.84 966.841 1102.32C966.161 1102.86 965.625 1103.56 965.279 1104.36C964.934 1105.16 964.791 1106.03 964.861 1106.9C965.267 1107.71 965.805 1108.46 966.453 1109.11C967.177 1110.1 967.92 1111.07 968.645 1112.04C969.059 1112.66 969.559 1113.21 970.13 1113.68C972.446 1115.45 976.141 1114.48 978.457 1116.32C979.108 1116.95 979.606 1117.73 979.912 1118.58C980.219 1119.44 980.326 1120.35 980.225 1121.25C980.076 1122.1 980.174 1122.97 980.508 1123.76C980.846 1124.23 981.288 1124.62 981.798 1124.89L985.193 1127C985.193 1126.8 985.193 1126.59 985.193 1126.4L982.187 1124.5Z" fill="#0088A6"/>
<path d="M935.336 1269.48C935.336 1269.48 931.942 1270.19 932.631 1279.45C933.321 1288.71 934.399 1290.34 935.761 1290.45C937.122 1290.55 943.929 1292.21 943.575 1288.84C943.222 1285.46 942.886 1277.84 943.345 1276.67C943.805 1275.51 945.644 1272.4 943.893 1271.63L942.479 1273.4C942.479 1273.4 938.784 1269.99 936.574 1272.47C936.574 1272.54 934.523 1270.27 935.336 1269.48Z" fill="#4E4B66"/>
<path opacity="0.1" d="M937.477 1275.21C938.201 1275.54 938.891 1275.98 939.616 1276.34C940.336 1276.71 941.138 1276.9 941.949 1276.88C942.294 1276.87 942.626 1276.75 942.904 1276.55" fill="#0088A6"/>
<path opacity="0.1" d="M959.734 1284.29C960.131 1284.73 960.55 1285.14 960.99 1285.53C961.738 1285.93 962.586 1286.1 963.429 1286.03C963.564 1286.05 963.702 1286.05 963.836 1286.03C963.991 1285.95 964.12 1285.84 964.207 1285.69L964.667 1285.11" fill="#0088A6"/>
<path d="M902.647 1130.23C902.647 1130.23 901.091 1115.4 907.173 1119.06C913.255 1122.72 909.047 1129.19 909.047 1129.19L907.633 1133.77L902.647 1130.23Z" fill="#FFC1C7"/>
<path d="M912.371 1082.87L915.907 1079.46C915.907 1079.46 922.555 1060.29 929.167 1065.21C935.779 1070.12 920.787 1082.59 920.787 1082.59L916.826 1087.22L912.371 1082.87Z" fill="#FFC1C7"/>
<path d="M861.542 1158.66L861.365 1162.59C861.365 1162.59 864.548 1168.16 865.891 1168.56C867.235 1168.97 867.093 1156.81 867.093 1156.81L861.542 1158.66Z" fill="#00BA88"/>
<path opacity="0.1" d="M861.188 1159L861.012 1162.94C861.012 1162.94 864.212 1168.49 865.538 1168.9C866.864 1169.3 866.758 1157.16 866.758 1157.16L861.188 1159Z" fill="#0088A6"/>
<path d="M866.863 1154.35L867.093 1168.86H883.252L882.032 1160.41L866.863 1154.35Z" fill="#FFC1C7"/>
<path d="M870.629 1190.56L871.39 1195.19L880.813 1216.16C880.813 1216.16 885.109 1222.75 881.626 1228.3C878.143 1233.85 874.554 1242.55 873.988 1247.75C873.423 1252.95 868.844 1258.18 868.844 1258.18L878.797 1262.41C878.797 1262.41 879.487 1254.11 882.333 1250.24C885.18 1246.37 894.037 1229.27 894.037 1229.27C894.037 1229.27 896.866 1226.73 896.229 1219.14C895.593 1211.56 895.664 1206.24 895.664 1206.24L894.674 1194.15L870.629 1190.56Z" fill="#4E4B66"/>
<path opacity="0.1" d="M870.629 1190.56L871.39 1195.19L880.813 1216.16C880.813 1216.16 885.109 1222.75 881.626 1228.3C878.143 1233.85 874.554 1242.55 873.988 1247.75C873.423 1252.95 868.844 1258.18 868.844 1258.18L878.797 1262.41C878.797 1262.41 879.487 1254.11 882.333 1250.24C885.18 1246.37 894.037 1229.27 894.037 1229.27C894.037 1229.27 896.866 1226.73 896.229 1219.14C895.593 1211.56 895.664 1206.24 895.664 1206.24L894.674 1194.15L870.629 1190.56Z" fill="#0088A6"/>
<path d="M869.711 1257.61C869.711 1257.61 859.104 1260.85 862.64 1266.17C866.175 1271.49 877.632 1281.64 882.264 1281.29C886.896 1280.93 885.04 1277.52 885.04 1277.52L881.168 1273.7C880.84 1270.22 880.704 1266.72 880.761 1263.22C881.044 1260.85 877.455 1259.68 876.995 1261.13C876.536 1262.58 869.711 1257.61 869.711 1257.61Z" fill="#00BA88"/>
<path d="M876.428 1162.69L867.977 1163.61C867.221 1163.69 866.523 1164.06 866.023 1164.63C865.522 1165.2 865.254 1165.94 865.272 1166.7C865.36 1170.08 865.431 1175.54 864.954 1176.43C863.946 1179.84 864.024 1183.48 865.177 1186.85C866.33 1190.22 868.501 1193.14 871.389 1195.22L883.942 1199.22L863.805 1200.67L864.441 1211.84L867.553 1210.07L905.776 1211.84C905.776 1211.84 916.596 1210.74 909.312 1198.99C902.028 1187.23 886.328 1175.72 886.328 1175.72L886.152 1166.56L885.002 1163.91L876.428 1162.69Z" fill="#4E4B66"/>
<path opacity="0.1" d="M886.895 1199.01C888.267 1198.41 889.747 1198.1 891.244 1198.1C892.74 1198.1 894.22 1198.41 895.593 1199.01H886.895Z" fill="#0088A6"/>
<path d="M864.779 1200.53C864.779 1200.53 852.403 1198.76 852.279 1201.11C852.155 1203.46 854.047 1226.57 859.97 1225.01C865.892 1223.46 863.399 1215.8 863.399 1215.8L867.855 1211.52C867.855 1211.52 868.314 1209.15 865.362 1209.38L864.779 1200.53Z" fill="#00BA88"/>
<path d="M885.391 1135.78L890.324 1141.41C890.324 1141.41 892.463 1144.06 895.009 1140.01C897.554 1135.96 902.292 1128.73 902.292 1128.73C902.292 1128.73 907.596 1133.36 908.958 1132.42C910.319 1131.49 896.158 1151.71 896.158 1151.71C896.158 1151.71 891.649 1158.36 884.931 1150.49L882.969 1149.57L885.391 1135.78Z" fill="#00BA88"/>
<path opacity="0.1" d="M885.057 1135.78L889.972 1141.41C889.972 1141.41 892.111 1144.06 894.657 1140.01C897.203 1135.96 901.959 1128.73 901.959 1128.73C901.959 1128.73 907.263 1133.36 908.606 1132.42C909.95 1131.49 895.824 1151.71 895.824 1151.71C895.824 1151.71 891.298 1158.36 884.58 1150.49L882.617 1149.57L885.057 1135.78Z" fill="#0088A6"/>
<path d="M870.348 1112.98C876.011 1112.98 880.602 1108.39 880.602 1102.72C880.602 1097.06 876.011 1092.47 870.348 1092.47C864.685 1092.47 860.094 1097.06 860.094 1102.72C860.094 1108.39 864.685 1112.98 870.348 1112.98Z" fill="#FFC1C7"/>
<path opacity="0.1" d="M870.347 1108.22C870.347 1108.22 861.507 1112.39 862.586 1119.7C863.274 1125.17 863.681 1130.68 863.806 1136.19C863.806 1136.19 867.801 1142.1 862.497 1153.39C862.497 1153.39 859.103 1159.12 861.366 1163.29C861.366 1163.29 863.876 1156.68 870.347 1161.53C876.818 1166.37 887.249 1168.6 887.249 1168.6C887.249 1168.6 881.856 1144.98 885.162 1141.67C885.162 1141.67 890.891 1133.17 885.693 1127.79C880.495 1122.42 883.076 1117.36 883.076 1117.36L899.819 1108.38C899.819 1108.38 903.355 1108.38 908.093 1101.04C911.16 1096.3 914.544 1091.77 918.223 1087.48C918.223 1087.48 914.687 1082.18 911.275 1081.7C910.126 1083.22 909.35 1084.98 909.012 1086.85C908.517 1088.85 905.176 1092.15 902.135 1094.87C899.996 1096.78 897.909 1098.78 895.841 1100.76C894.303 1102.25 890.873 1104.3 883.465 1105.55C871.16 1107.59 870.347 1108.22 870.347 1108.22Z" fill="#0088A6"/>
<path d="M870.347 1107.53C870.347 1107.53 861.507 1111.7 862.586 1118.99C863.274 1124.47 863.681 1129.98 863.806 1135.5C863.806 1135.5 867.801 1141.41 862.497 1152.69C862.497 1152.69 859.103 1158.43 861.366 1162.59C861.366 1162.59 863.876 1155.99 870.347 1160.82C876.818 1165.64 887.249 1167.89 887.249 1167.89C887.249 1167.89 881.856 1144.27 885.162 1140.96C885.162 1140.96 890.891 1132.46 885.693 1127.07C880.495 1121.68 883.076 1116.65 883.076 1116.65L899.819 1107.67C899.819 1107.67 903.355 1107.67 908.093 1100.32C911.163 1095.58 914.547 1091.06 918.223 1086.78C918.223 1086.78 914.687 1081.38 911.275 1080.98C910.129 1082.5 909.354 1084.27 909.012 1086.14C908.517 1088.14 905.176 1091.44 902.135 1094.17C899.996 1096.08 897.909 1098.06 895.841 1100.05C894.303 1101.52 890.873 1103.59 883.465 1104.84C871.16 1106.83 870.347 1107.53 870.347 1107.53Z" fill="#00BA88"/>
<path opacity="0.1" d="M877.932 1151.18C877.932 1151.18 884.756 1161.26 885.003 1162.99C884.933 1162.99 883.978 1152.17 877.932 1151.18Z" fill="#0088A6"/>
<path opacity="0.1" d="M868.949 1117.26C870.392 1118.89 872.412 1119.9 874.585 1120.08C876.759 1120.25 878.915 1119.58 880.6 1118.19C878.696 1118.84 876.681 1119.08 874.678 1118.92C872.675 1118.76 870.726 1118.19 868.949 1117.26Z" fill="#0088A6"/>
<path opacity="0.1" d="M872.646 1091.99C872.52 1091.47 872.265 1090.99 871.903 1090.6C870.492 1088.48 868.563 1086.76 866.299 1085.61C864.75 1085.03 863.057 1084.96 861.466 1085.41C859.876 1085.86 858.471 1086.81 857.459 1088.12C856.628 1089.25 856.115 1090.61 855.391 1091.82C853.963 1094.01 852.029 1095.83 849.751 1097.12C848.407 1097.95 846.993 1098.66 845.72 1099.59C843.459 1101.37 841.739 1103.74 840.755 1106.44C839.771 1109.14 839.562 1112.06 840.151 1114.87C840.646 1117.33 841.724 1119.77 841.441 1122.26C841.076 1124.18 840.291 1125.99 839.143 1127.56C837.972 1129.16 837.097 1130.96 836.562 1132.87C836.3 1133.81 836.311 1134.81 836.592 1135.75C836.874 1136.69 837.415 1137.53 838.153 1138.17C838.786 1138.5 839.379 1138.91 839.921 1139.37C840.26 1139.76 840.54 1140.19 840.752 1140.66C841.576 1142.19 842.703 1143.53 844.066 1144.6C845.428 1145.68 846.996 1146.46 848.672 1146.9C850.175 1147.29 852.208 1147.15 852.721 1145.7C852.778 1145.45 852.873 1145.2 853.004 1144.98C853.499 1144.27 854.577 1144.68 855.337 1144.98C857.08 1145.9 858.995 1146.44 860.96 1146.59C861.73 1146.7 862.515 1146.6 863.24 1146.32C863.862 1146.01 864.397 1145.55 864.796 1144.98C866.442 1142.45 867.365 1139.52 867.466 1136.51C867.749 1134.57 867.749 1132.61 867.466 1130.67C866.882 1127.6 865.008 1124.72 865.291 1121.61C865.574 1118.49 868.279 1115.54 868.703 1112.22C868.912 1110.48 868.478 1108.73 867.483 1107.28C867.116 1106.84 866.802 1106.35 866.546 1105.83C866.43 1105.57 866.395 1105.28 866.445 1105C866.496 1104.71 866.629 1104.45 866.829 1104.24C867.048 1104.08 867.293 1103.96 867.554 1103.89C868.579 1103.42 869.453 1102.68 870.078 1101.74C870.702 1100.8 871.053 1099.71 871.09 1098.59C871.069 1097.74 871.146 1096.9 871.32 1096.08C871.691 1094.82 872.84 1093.39 872.646 1091.99Z" fill="#0088A6"/>
<path d="M871.956 1091.99C871.825 1091.47 871.563 1090.99 871.196 1090.6C869.787 1088.48 867.857 1086.76 865.592 1085.61C864.043 1085.03 862.35 1084.96 860.759 1085.41C859.169 1085.86 857.764 1086.81 856.752 1088.12C856.001 1089.32 855.31 1090.55 854.683 1091.82C853.256 1094.01 851.322 1095.83 849.044 1097.12C847.7 1097.95 846.286 1098.66 845.013 1099.59C842.753 1101.37 841.034 1103.74 840.047 1106.44C839.06 1109.14 838.845 1112.06 839.426 1114.87C839.939 1117.33 841.017 1119.77 840.734 1122.26C840.371 1124.18 839.579 1125.99 838.418 1127.56C837.252 1129.16 836.384 1130.96 835.855 1132.87C835.593 1133.81 835.604 1134.81 835.885 1135.75C836.167 1136.69 836.708 1137.53 837.446 1138.17C838.076 1138.51 838.669 1138.91 839.214 1139.37C839.548 1139.76 839.822 1140.2 840.027 1140.66C840.857 1142.19 841.989 1143.53 843.354 1144.6C844.719 1145.67 846.288 1146.46 847.965 1146.9C849.468 1147.29 851.501 1147.15 852.014 1145.7C852.071 1145.45 852.166 1145.2 852.297 1144.98C852.792 1144.27 853.87 1144.68 854.63 1144.98C856.367 1145.9 858.275 1146.45 860.235 1146.59C861.011 1146.7 861.802 1146.6 862.533 1146.32C863.153 1146.01 863.682 1145.55 864.071 1144.98C865.724 1142.45 866.648 1139.52 866.741 1136.51C867.033 1134.58 867.033 1132.61 866.741 1130.67C866.157 1127.6 864.283 1124.72 864.549 1121.61C864.814 1118.49 867.554 1115.54 867.961 1112.22C868.179 1110.48 867.745 1108.72 866.741 1107.28C866.385 1106.83 866.077 1106.35 865.822 1105.83C865.705 1105.57 865.67 1105.28 865.721 1105C865.771 1104.71 865.905 1104.45 866.104 1104.24C866.319 1104.08 866.566 1103.96 866.829 1103.89C867.855 1103.42 868.731 1102.68 869.356 1101.74C869.981 1100.81 870.33 1099.71 870.365 1098.59C870.359 1097.74 870.442 1096.9 870.613 1096.08C871.002 1094.82 872.151 1093.39 871.956 1091.99Z" fill="#4E4B66"/>
<g opacity="0.1">
<path opacity="0.1" d="M851.252 1145.01C851.122 1145.24 851.026 1145.48 850.969 1145.74C850.781 1146.14 850.482 1146.49 850.106 1146.73C849.731 1146.97 849.294 1147.1 848.848 1147.1C850.174 1147.22 851.57 1146.92 852.012 1145.74C852.069 1145.48 852.165 1145.24 852.295 1145.01C852.382 1144.88 852.505 1144.78 852.649 1144.71C852.415 1144.6 852.152 1144.57 851.9 1144.63C851.648 1144.68 851.42 1144.82 851.252 1145.01Z" fill="#0088A6"/>
<path opacity="0.1" d="M871.973 1091.99C871.849 1091.47 871.586 1090.99 871.213 1090.6C869.804 1088.5 867.872 1086.8 865.608 1085.68C864.593 1085.28 863.497 1085.11 862.408 1085.2C863.133 1085.22 863.85 1085.36 864.53 1085.61C866.794 1086.73 868.726 1088.43 870.134 1090.52C870.508 1090.91 870.77 1091.4 870.894 1091.92C871.089 1093.32 869.94 1094.75 869.551 1096.04C869.377 1096.87 869.3 1097.71 869.321 1098.55C869.28 1099.68 868.928 1100.77 868.304 1101.7C867.679 1102.64 866.807 1103.38 865.785 1103.86C865.522 1103.92 865.275 1104.04 865.06 1104.21C864.858 1104.41 864.723 1104.68 864.673 1104.96C864.622 1105.24 864.659 1105.54 864.777 1105.8C865.033 1106.32 865.347 1106.8 865.714 1107.25C866.718 1108.69 867.153 1110.44 866.934 1112.18C866.51 1115.51 863.805 1118.23 863.504 1121.55C863.204 1124.88 865.113 1127.56 865.697 1130.64C865.988 1132.57 865.988 1134.54 865.697 1136.47C865.605 1139.49 864.687 1142.42 863.045 1144.94C862.645 1145.51 862.111 1145.97 861.489 1146.29C861.13 1146.44 860.748 1146.54 860.357 1146.57C861.094 1146.65 861.839 1146.55 862.532 1146.29C863.154 1145.97 863.688 1145.51 864.088 1144.94C865.73 1142.42 866.648 1139.49 866.74 1136.47C867.031 1134.54 867.031 1132.57 866.74 1130.64C866.156 1127.56 864.282 1124.68 864.547 1121.55C864.813 1118.42 867.553 1115.51 867.977 1112.18C868.196 1110.44 867.761 1108.69 866.757 1107.25C866.39 1106.8 866.076 1106.32 865.82 1105.8C865.702 1105.54 865.665 1105.24 865.716 1104.96C865.766 1104.68 865.901 1104.41 866.103 1104.21C866.318 1104.04 866.565 1103.92 866.828 1103.86C867.854 1103.39 868.729 1102.65 869.354 1101.71C869.979 1100.77 870.329 1099.68 870.364 1098.55C870.358 1097.71 870.441 1096.87 870.612 1096.04C871.018 1094.82 872.167 1093.39 871.973 1091.99Z" fill="#0088A6"/>
</g>
<path opacity="0.1" d="M858.82 1214.67C859.417 1215.32 860.184 1215.79 861.034 1216.02C861.885 1216.26 862.784 1216.25 863.629 1216" fill="#0088A6"/>
<path opacity="0.1" d="M881.078 1274C880.747 1274.28 880.36 1274.47 879.945 1274.58C879.529 1274.69 879.095 1274.7 878.674 1274.62" fill="#0088A6"/>
<path d="M341.747 1282.22L365.296 1268.38C362.109 1262.94 358.04 1258.08 353.256 1253.97L308.845 1267.8L343.639 1247.33C335.023 1242.61 325.327 1240.21 315.506 1240.38C305.684 1240.55 296.075 1243.27 287.624 1248.28C279.173 1253.28 272.172 1260.4 267.309 1268.94C262.447 1277.47 259.89 1287.13 259.891 1296.95C259.891 1328.19 285.225 1329.29 316.465 1329.29C347.705 1329.29 373.04 1328.19 373.04 1296.95C373.056 1289.03 371.399 1281.2 368.178 1273.97L341.747 1282.22Z" fill="#00BA88"/>
<path opacity="0.1" d="M347.74 1312.6C345.232 1310.08 342.431 1307.88 339.396 1306.04C335.135 1303.21 330.697 1300.31 325.659 1299.34C321.239 1298.49 316.677 1299.21 312.169 1298.95C304.341 1298.47 296.972 1295.09 291.502 1289.47C288.284 1286.15 285.756 1282.06 281.884 1279.54C277.558 1276.96 272.453 1276.02 267.493 1276.88C266.056 1277.09 264.633 1277.39 263.232 1277.77C261.018 1283.92 259.887 1290.41 259.891 1296.95C259.891 1328.19 285.225 1329.29 316.465 1329.29C331.634 1329.29 345.389 1329.02 355.555 1325.19L353.787 1322.02C352.177 1318.64 350.145 1315.47 347.74 1312.6Z" fill="#0088A6"/>
<path d="M1720.75 1282.22L1744.3 1268.38C1741.11 1262.94 1737.04 1258.08 1732.26 1253.97L1687.85 1267.8L1722.64 1247.33C1714.03 1242.61 1704.33 1240.21 1694.51 1240.38C1684.69 1240.55 1675.08 1243.27 1666.63 1248.28C1658.18 1253.28 1651.18 1260.4 1646.31 1268.94C1641.45 1277.47 1638.89 1287.13 1638.89 1296.95C1638.89 1328.19 1664.23 1329.29 1695.47 1329.29C1726.71 1329.29 1752.04 1328.19 1752.04 1296.95C1752.06 1289.03 1750.4 1281.2 1747.18 1273.97L1720.75 1282.22Z" fill="#00BA88"/>
<path opacity="0.1" d="M1726.74 1312.6C1724.24 1310.08 1721.43 1307.88 1718.4 1306.04C1714.14 1303.21 1709.7 1300.31 1704.66 1299.34C1700.24 1298.49 1695.68 1299.21 1691.17 1298.95C1683.34 1298.47 1675.98 1295.09 1670.51 1289.47C1667.29 1286.15 1664.76 1282.06 1660.89 1279.54C1656.56 1276.96 1651.46 1276.02 1646.5 1276.88C1645.06 1277.09 1643.64 1277.39 1642.24 1277.77C1640.02 1283.92 1638.89 1290.41 1638.89 1296.95C1638.89 1328.19 1664.23 1329.29 1695.47 1329.29C1710.64 1329.29 1724.39 1329.02 1734.56 1325.19L1732.79 1322.02C1731.18 1318.64 1729.15 1315.47 1726.74 1312.6Z" fill="#0088A6"/>
<path d="M586.662 1258.04L568.257 1247.22C570.756 1242.98 573.933 1239.18 577.663 1235.97L612.368 1246.76L585.177 1230.85C591.897 1227.17 599.46 1225.3 607.122 1225.42C614.784 1225.54 622.282 1227.66 628.88 1231.55C635.479 1235.45 640.952 1240.99 644.761 1247.64C648.57 1254.29 650.585 1261.81 650.609 1269.48C650.609 1293.89 630.825 1294.74 606.41 1294.74C581.994 1294.74 562.211 1293.89 562.211 1269.48C562.205 1263.3 563.5 1257.19 566.012 1251.55L586.662 1258.04Z" fill="#00BA88"/>
<path opacity="0.1" d="M581.976 1281.85C583.932 1279.89 586.116 1278.18 588.482 1276.74C591.67 1274.28 595.319 1272.47 599.214 1271.44C602.75 1270.77 606.286 1271.33 609.822 1271.14C615.933 1270.75 621.684 1268.11 625.963 1263.73C628.474 1261.13 630.454 1257.93 633.477 1255.95C636.857 1253.94 640.846 1253.21 644.721 1253.88C645.841 1254.05 646.951 1254.28 648.045 1254.57C649.755 1259.35 650.623 1264.4 650.608 1269.48C650.608 1293.89 630.825 1294.74 606.41 1294.74C594.564 1294.74 583.815 1294.53 575.877 1291.54L577.203 1289.07C578.48 1286.47 580.085 1284.04 581.976 1281.85Z" fill="#0088A6"/>
<path d="M728.097 1258.04L709.693 1247.22C712.192 1242.98 715.369 1239.18 719.098 1235.97L753.803 1246.76L726.612 1230.85C733.333 1227.17 740.895 1225.3 748.557 1225.42C756.219 1225.54 763.717 1227.66 770.316 1231.55C776.915 1235.45 782.387 1240.99 786.196 1247.64C790.006 1254.29 792.021 1261.81 792.044 1269.48C792.044 1293.89 772.261 1294.74 747.845 1294.74C723.43 1294.74 703.647 1293.89 703.647 1269.48C703.64 1263.3 704.936 1257.19 707.448 1251.55L728.097 1258.04Z" fill="#00BA88"/>
<path opacity="0.1" d="M723.412 1281.85C725.367 1279.89 727.552 1278.18 729.918 1276.74C733.105 1274.28 736.754 1272.47 740.649 1271.44C744.185 1270.77 747.721 1271.33 751.257 1271.14C757.369 1270.75 763.12 1268.11 767.399 1263.73C769.909 1261.13 771.889 1257.93 774.912 1255.95C778.292 1253.94 782.282 1253.21 786.157 1253.88C787.277 1254.05 788.386 1254.28 789.48 1254.57C791.191 1259.35 792.058 1264.4 792.044 1269.48C792.044 1293.89 772.261 1294.74 747.845 1294.74C736 1294.74 725.251 1294.53 717.312 1291.54L718.638 1289.07C719.916 1286.47 721.52 1284.04 723.412 1281.85Z" fill="#0088A6"/>
<path d="M1242.57 1258.04L1224.17 1247.22C1226.67 1242.98 1229.84 1239.18 1233.57 1235.97L1268.28 1246.76L1241.09 1230.85C1247.81 1227.17 1255.37 1225.3 1263.03 1225.42C1270.69 1225.54 1278.19 1227.66 1284.79 1231.55C1291.39 1235.45 1296.86 1240.99 1300.67 1247.64C1304.48 1254.29 1306.5 1261.81 1306.52 1269.48C1306.52 1293.89 1286.74 1294.74 1262.32 1294.74C1237.9 1294.74 1218.12 1293.89 1218.12 1269.48C1218.11 1263.3 1219.41 1257.19 1221.92 1251.55L1242.57 1258.04Z" fill="#00BA88"/>
<path opacity="0.1" d="M1237.89 1281.85C1239.84 1279.89 1242.03 1278.18 1244.39 1276.74C1247.58 1274.28 1251.23 1272.47 1255.12 1271.44C1258.66 1270.77 1262.2 1271.33 1265.73 1271.14C1271.84 1270.75 1277.59 1268.11 1281.87 1263.73C1284.38 1261.13 1286.36 1257.93 1289.39 1255.95C1292.77 1253.94 1296.76 1253.21 1300.63 1253.88C1301.75 1254.05 1302.86 1254.28 1303.96 1254.57C1305.67 1259.35 1306.53 1264.4 1306.52 1269.48C1306.52 1293.89 1286.74 1294.74 1262.32 1294.74C1250.47 1294.74 1239.73 1294.53 1231.79 1291.54L1233.11 1289.07C1234.39 1286.47 1235.99 1284.04 1237.89 1281.85Z" fill="#0088A6"/>
<path d="M788.225 1144.46C791.455 1138.82 793.127 1132.42 793.069 1125.92C793.069 1109.16 782.674 1095.56 769.874 1095.56C757.074 1095.56 746.678 1109.16 746.678 1125.92C746.62 1132.42 748.292 1138.82 751.522 1144.46C748.343 1150.14 746.673 1156.53 746.673 1163.03C746.673 1169.53 748.343 1175.92 751.522 1181.59C748.34 1187.26 746.668 1193.65 746.668 1200.16C746.668 1206.66 748.34 1213.05 751.522 1218.72C748.343 1224.39 746.673 1230.78 746.673 1237.28C746.673 1243.78 748.343 1250.18 751.522 1255.85C748.289 1261.49 746.617 1267.89 746.678 1274.39C746.678 1291.15 757.074 1304.75 769.874 1304.75C782.674 1304.75 793.069 1291.15 793.069 1274.39C793.13 1267.89 791.458 1261.49 788.225 1255.85C791.404 1250.18 793.074 1243.78 793.074 1237.28C793.074 1230.78 791.404 1224.39 788.225 1218.72C791.408 1213.05 793.079 1206.66 793.079 1200.16C793.079 1193.65 791.408 1187.26 788.225 1181.59C791.404 1175.92 793.074 1169.53 793.074 1163.03C793.074 1156.53 791.404 1150.14 788.225 1144.46Z" fill="#4E4B66"/>
<path d="M769.875 1119.18C782.686 1119.18 793.071 1105.59 793.071 1088.83C793.071 1072.06 782.686 1058.47 769.875 1058.47C757.065 1058.47 746.68 1072.06 746.68 1088.83C746.68 1105.59 757.065 1119.18 769.875 1119.18Z" fill="#4E4B66"/>
<path d="M769.875 1082.09C782.686 1082.09 793.071 1068.5 793.071 1051.74C793.071 1034.97 782.686 1021.38 769.875 1021.38C757.065 1021.38 746.68 1034.97 746.68 1051.74C746.68 1068.5 757.065 1082.09 769.875 1082.09Z" fill="#4E4B66"/>
<path d="M856.681 797.839C859.846 793.805 862.728 789.558 865.308 785.127L804.42 775.121L870.312 775.616C876.632 761.862 880.08 746.963 880.444 731.83C880.809 716.698 878.083 701.65 872.433 687.607L784.036 733.468L865.556 673.552C857.911 660.369 847.635 648.9 835.367 639.859C823.1 630.818 809.103 624.399 794.247 621C779.392 617.602 763.996 617.297 749.017 620.104C734.039 622.912 719.799 628.772 707.182 637.319C694.566 645.867 683.844 656.92 675.683 669.79C667.522 682.66 662.097 697.072 659.746 712.128C657.394 727.185 658.166 742.565 662.014 757.31C665.862 772.056 672.704 785.851 682.113 797.839C677.178 804.119 672.935 810.912 669.454 818.1L748.535 859.187L664.203 830.9C658.286 848.405 656.824 867.11 659.951 885.322C663.078 903.534 670.695 920.68 682.113 935.209C669.229 951.592 661.216 971.269 658.988 991.992C656.76 1012.71 660.408 1033.65 669.515 1052.39C678.621 1071.14 692.819 1086.95 710.485 1098C728.152 1109.06 748.573 1114.93 769.415 1114.93C790.256 1114.93 810.677 1109.06 828.344 1098C846.01 1086.95 860.208 1071.14 869.314 1052.39C878.421 1033.65 882.069 1012.71 879.841 991.992C877.613 971.269 869.6 951.592 856.716 935.209C872.11 915.631 880.478 891.447 880.478 866.542C880.478 841.636 872.11 817.453 856.716 797.874L856.681 797.839Z" fill="#00BA88"/>
<path opacity="0.1" d="M658.317 866.507C658.271 891.42 666.644 915.617 682.078 935.174C669.194 951.557 661.181 971.234 658.953 991.956C656.725 1012.68 660.373 1033.61 669.48 1052.36C678.587 1071.1 692.785 1086.91 710.451 1097.97C728.117 1109.03 748.538 1114.89 769.38 1114.89C790.221 1114.89 810.643 1109.03 828.309 1097.97C845.975 1086.91 860.173 1071.1 869.279 1052.36C878.386 1033.61 882.034 1012.68 879.806 991.956C877.578 971.234 869.565 951.557 856.681 935.174C871.603 916.292 658.317 854.007 658.317 866.507Z" fill="#0088A6"/>
<path d="M1126.82 1117.08C1130.91 1109.94 1133.02 1101.83 1132.94 1093.6C1132.94 1072.39 1119.8 1055.18 1103.59 1055.18C1087.38 1055.18 1074.24 1072.39 1074.24 1093.6C1074.17 1101.83 1076.29 1109.94 1080.38 1117.08C1076.36 1124.25 1074.24 1132.33 1074.24 1140.55C1074.24 1148.77 1076.36 1156.85 1080.38 1164.02C1076.36 1171.19 1074.25 1179.28 1074.25 1187.5C1074.25 1195.72 1076.36 1203.8 1080.38 1210.98C1076.36 1218.15 1074.25 1226.23 1074.25 1234.45C1074.25 1242.68 1076.36 1250.76 1080.38 1257.93C1076.28 1265.07 1074.17 1273.18 1074.24 1281.41C1074.24 1302.63 1087.4 1319.83 1103.59 1319.83C1119.79 1319.83 1132.94 1302.63 1132.94 1281.41C1133.02 1273.18 1130.91 1265.08 1126.82 1257.93C1130.83 1250.76 1132.94 1242.67 1132.94 1234.45C1132.94 1226.23 1130.83 1218.15 1126.82 1210.98C1130.83 1203.8 1132.94 1195.72 1132.94 1187.5C1132.94 1179.28 1130.83 1171.19 1126.82 1164.02C1130.83 1156.85 1132.94 1148.77 1132.94 1140.55C1132.94 1132.33 1130.83 1124.25 1126.82 1117.08Z" fill="#4E4B66"/>
<path d="M1103.59 1085.08C1119.8 1085.08 1132.94 1067.88 1132.94 1046.66C1132.94 1025.45 1119.8 1008.25 1103.59 1008.25C1087.39 1008.25 1074.25 1025.45 1074.25 1046.66C1074.25 1067.88 1087.39 1085.08 1103.59 1085.08Z" fill="#4E4B66"/>
<path d="M1103.59 1038.12C1119.8 1038.12 1132.94 1020.92 1132.94 999.704C1132.94 978.487 1119.8 961.287 1103.59 961.287C1087.39 961.287 1074.25 978.487 1074.25 999.704C1074.25 1020.92 1087.39 1038.12 1103.59 1038.12Z" fill="#4E4B66"/>
<path d="M993.751 678.379C989.732 673.282 986.081 667.905 982.825 662.29L1059.93 649.632L976.531 650.25C968.529 632.844 964.164 613.988 963.702 594.837C963.24 575.685 966.691 556.641 973.844 538.869L1085.74 596.911L982.542 521.066C992.227 504.394 1005.24 489.893 1020.77 478.465C1036.29 467.036 1054.01 458.924 1072.8 454.632C1091.6 450.341 1111.08 449.963 1130.03 453.52C1148.98 457.078 1166.99 464.496 1182.95 475.313C1198.91 486.13 1212.48 500.114 1222.8 516.397C1233.13 532.68 1240 550.913 1242.97 569.962C1245.95 589.011 1244.98 608.469 1240.12 627.126C1235.26 645.784 1226.61 663.241 1214.71 678.414C1220.96 686.359 1226.34 694.953 1230.75 704.049L1130.64 756.063L1237.38 720.244C1244.88 742.394 1246.73 766.066 1242.77 789.114C1238.81 812.163 1229.17 833.859 1214.71 852.239C1231.02 872.975 1241.16 897.88 1243.98 924.108C1246.8 950.335 1242.18 976.827 1230.65 1000.55C1219.13 1024.28 1201.16 1044.29 1178.8 1058.28C1156.44 1072.28 1130.59 1079.7 1104.21 1079.7C1077.83 1079.7 1051.99 1072.28 1029.63 1058.28C1007.27 1044.29 989.299 1024.28 977.772 1000.55C966.246 976.827 961.629 950.335 964.448 924.108C967.267 897.88 977.41 872.975 993.716 852.239C974.224 827.462 963.627 796.852 963.627 765.327C963.627 733.801 974.224 703.191 993.716 678.414L993.751 678.379Z" fill="#00BA88"/>
<path opacity="0.1" d="M1244.8 765.292C1244.86 796.821 1234.27 827.447 1214.74 852.205C1231.05 872.94 1241.19 897.845 1244.01 924.073C1246.83 950.301 1242.21 976.792 1230.69 1000.52C1219.16 1024.25 1201.19 1044.25 1178.83 1058.25C1156.47 1072.24 1130.62 1079.67 1104.25 1079.67C1077.87 1079.67 1052.02 1072.24 1029.66 1058.25C1007.3 1044.25 989.332 1024.25 977.805 1000.52C966.279 976.792 961.662 950.301 964.481 924.073C967.3 897.845 977.443 872.94 993.749 852.205C974.902 828.284 1244.8 749.522 1244.8 765.292Z" fill="#0088A6"/>
</g>
<defs>
<linearGradient id="paint0_linear" x1="960" y1="0" x2="960" y2="1336" gradientUnits="userSpaceOnUse">
<stop stop-color="#D5F7FF"/>
<stop offset="1" stop-color="#F8FEFF"/>
</linearGradient>
<linearGradient id="paint1_linear" x1="934.896" y1="1299.53" x2="934.896" y2="1062.98" gradientUnits="userSpaceOnUse">
<stop stop-color="#808080" stop-opacity="0.25"/>
<stop offset="0.54" stop-color="#808080" stop-opacity="0.12"/>
<stop offset="1" stop-color="#808080" stop-opacity="0.1"/>
</linearGradient>
</defs>
</svg>
